<svg width="421" height="421" viewBox="0 0 421 421" fill="none" xmlns="http://www.w3.org/2000/svg">
    <g clip-path="url(#clip0_47_21647)">
    <path fill-rule="evenodd" clip-rule="evenodd" d="M156.211 171.487C156.2 171.474 156.204 171.454 156.218 171.446C171.889 162.361 187.71 153.287 203.381 144.202C205.69 142.839 208.323 142.119 211.006 142.119C213.688 142.119 216.321 142.839 218.631 144.202L241.931 157.542C242.233 157.726 242.482 157.984 242.656 158.293C242.829 158.601 242.92 158.948 242.92 159.302C242.92 159.656 242.829 160.003 242.656 160.312C242.482 160.62 242.233 160.878 241.931 161.062L184.931 193.892C184.212 194.307 183.617 194.905 183.206 195.625C182.795 196.346 182.582 197.163 182.591 197.992V225.552C182.576 226.369 182.786 227.175 183.199 227.881C183.612 228.586 184.211 229.165 184.931 229.552L208.831 243.332C209.509 243.764 210.297 243.993 211.101 243.993C211.905 243.993 212.692 243.764 213.371 243.332L311.861 186.612C328.571 176.932 328.571 149.092 311.861 139.412L223.341 88.4121C219.648 86.1799 215.415 85 211.101 85C206.786 85 202.553 86.1799 198.861 88.4121L110.331 139.412C106.572 141.528 103.446 144.61 101.279 148.339C99.1108 152.068 97.9791 156.309 98.0006 160.622C98.0006 194.772 98.1506 228.772 98.0006 262.772C97.9702 267.092 99.0956 271.341 101.26 275.079C103.425 278.817 106.549 281.908 110.311 284.032L198.841 335.182C202.559 337.339 206.782 338.474 211.081 338.474C215.379 338.474 219.602 337.339 223.321 335.182L311.841 284.032C315.595 281.913 318.707 278.819 320.848 275.076C322.989 271.334 324.078 267.083 324.001 262.772V227.034C324.001 223.182 319.829 220.777 316.496 222.706L218.621 279.362C216.311 280.726 213.678 281.445 210.996 281.445C208.313 281.445 205.68 280.726 203.371 279.362L156.371 252.092C154.032 250.782 152.09 248.865 150.749 246.544C149.408 244.222 148.718 241.583 148.751 238.902V184.512C148.747 181.879 149.436 179.292 150.749 177.01C152.057 174.737 153.937 172.847 156.203 171.528C156.217 171.52 156.221 171.5 156.211 171.487V171.487Z" fill="white"/>
    </g>
    <defs>
    <clipPath id="clip0_47_21647">
    <rect x="98" y="84" width="226.37" height="253.53" rx="10" fill="white"/>
    </clipPath>
    </defs>
    </svg>
    