<svg width="227" height="254" viewBox="0 0 227 254" fill="none" xmlns="http://www.w3.org/2000/svg">
<g clip-path="url(#clip0_677_23)">
<path fill-rule="evenodd" clip-rule="evenodd" d="M58.1901 86.5101C73.8701 77.4201 89.7001 68.3401 105.38 59.2501C107.69 57.8866 110.323 57.1675 113.005 57.1675C115.687 57.1675 118.32 57.8866 120.63 59.2501L143.93 72.5901C144.232 72.7738 144.482 73.0323 144.655 73.3405C144.829 73.6488 144.92 73.9964 144.92 74.3501C144.92 74.7037 144.829 75.0514 144.655 75.3596C144.482 75.6679 144.232 75.9263 143.93 76.1101L86.9301 108.94C86.2117 109.355 85.6165 109.953 85.2053 110.673C84.7941 111.394 84.5818 112.211 84.5901 113.04V140.6C84.5751 141.417 84.7856 142.223 85.1983 142.929C85.6111 143.634 86.2103 144.213 86.9301 144.6L110.83 158.38C111.509 158.812 112.296 159.041 113.1 159.041C113.904 159.041 114.692 158.812 115.37 158.38L213.86 101.66C230.57 91.9801 230.57 64.1401 213.86 54.4601L125.34 3.46006C121.648 1.22789 117.415 0.0479736 113.1 0.0479736C108.785 0.0479736 104.553 1.22789 100.86 3.46006L12.3301 54.4601C8.57115 56.5757 5.44598 59.6577 3.27814 63.3868C1.11029 67.1159 -0.0214381 71.3567 0.000110766 75.6701C0.000110766 109.82 0.150111 143.82 0.000110766 177.82C-0.0302654 182.14 1.0951 186.389 3.25956 190.127C5.42403 193.865 8.54883 196.956 12.3101 199.08L100.84 250.23C104.559 252.386 108.781 253.522 113.08 253.522C117.379 253.522 121.601 252.386 125.32 250.23L213.84 199.08C217.595 196.961 220.707 193.867 222.848 190.124C224.988 186.382 226.077 182.131 226 177.82V133.41L120.62 194.41C118.31 195.773 115.677 196.493 112.995 196.493C110.313 196.493 107.68 195.773 105.37 194.41L58.3701 167.14C56.0315 165.83 54.0896 163.913 52.7486 161.592C51.4076 159.27 50.7172 156.631 50.7501 153.95V99.5601C50.7464 96.9273 51.4357 94.34 52.7487 92.0581C54.0617 89.7761 55.9521 87.8799 58.2301 86.5601L58.1901 86.5101Z" fill="#231F20"/>
</g>
<defs>
<clipPath id="clip0_677_23">
<rect width="226.37" height="253.53" fill="white"/>
</clipPath>
</defs>
</svg>
