<svg width="727" height="241" viewBox="0 0 727 241" fill="none" xmlns="http://www.w3.org/2000/svg">
<path d="M192.984 168.172C186.813 168.172 181.5 166.922 177.047 164.422C172.62 161.896 169.208 158.328 166.812 153.719C164.417 149.083 163.219 143.602 163.219 137.273C163.219 131.102 164.417 125.685 166.812 121.023C169.208 116.362 172.581 112.729 176.93 110.125C181.305 107.521 186.435 106.219 192.32 106.219C196.279 106.219 199.964 106.857 203.375 108.133C206.813 109.383 209.807 111.271 212.359 113.797C214.938 116.323 216.943 119.5 218.375 123.328C219.807 127.13 220.523 131.583 220.523 136.687V141.258H169.859V130.945H204.859C204.859 128.549 204.339 126.427 203.297 124.578C202.255 122.729 200.81 121.284 198.961 120.242C197.138 119.174 195.016 118.641 192.594 118.641C190.068 118.641 187.828 119.227 185.875 120.398C183.948 121.544 182.438 123.094 181.344 125.047C180.25 126.974 179.69 129.122 179.664 131.492V141.297C179.664 144.266 180.211 146.831 181.305 148.992C182.424 151.154 184 152.82 186.031 153.992C188.063 155.164 190.471 155.75 193.258 155.75C195.107 155.75 196.799 155.49 198.336 154.969C199.872 154.448 201.188 153.667 202.281 152.625C203.375 151.583 204.208 150.307 204.781 148.797L220.172 149.812C219.391 153.51 217.789 156.74 215.367 159.5C212.971 162.234 209.872 164.37 206.07 165.906C202.294 167.417 197.932 168.172 192.984 168.172ZM296.781 115.008H279.672C279.359 112.794 278.721 110.828 277.758 109.109C276.794 107.365 275.557 105.88 274.047 104.656C272.536 103.432 270.792 102.495 268.813 101.844C266.859 101.193 264.737 100.867 262.445 100.867C258.305 100.867 254.698 101.896 251.625 103.953C248.552 105.984 246.169 108.953 244.477 112.859C242.784 116.74 241.938 121.453 241.938 127C241.938 132.703 242.784 137.495 244.477 141.375C246.195 145.255 248.591 148.185 251.664 150.164C254.737 152.143 258.292 153.133 262.328 153.133C264.594 153.133 266.69 152.833 268.617 152.234C270.57 151.635 272.302 150.763 273.812 149.617C275.323 148.445 276.573 147.026 277.563 145.359C278.578 143.693 279.281 141.792 279.672 139.656L296.781 139.734C296.339 143.406 295.232 146.948 293.461 150.359C291.716 153.745 289.359 156.779 286.391 159.461C283.448 162.117 279.932 164.227 275.844 165.789C271.781 167.326 267.185 168.094 262.055 168.094C254.919 168.094 248.539 166.479 242.914 163.25C237.315 160.021 232.888 155.346 229.633 149.227C226.404 143.107 224.789 135.698 224.789 127C224.789 118.276 226.43 110.854 229.711 104.734C232.992 98.6146 237.445 93.9531 243.07 90.75C248.695 87.5208 255.023 85.9062 262.055 85.9062C266.69 85.9062 270.987 86.5573 274.945 87.8594C278.93 89.1615 282.458 91.0625 285.531 93.5625C288.604 96.0365 291.104 99.0703 293.031 102.664C294.984 106.258 296.234 110.372 296.781 115.008ZM320.207 168.133C316.379 168.133 312.967 167.469 309.973 166.141C306.978 164.786 304.608 162.794 302.863 160.164C301.145 157.508 300.285 154.201 300.285 150.242C300.285 146.909 300.897 144.109 302.121 141.844C303.345 139.578 305.012 137.755 307.121 136.375C309.23 134.995 311.626 133.953 314.309 133.25C317.017 132.547 319.855 132.052 322.824 131.766C326.314 131.401 329.126 131.062 331.262 130.75C333.397 130.411 334.947 129.917 335.91 129.266C336.874 128.615 337.355 127.651 337.355 126.375V126.141C337.355 123.667 336.574 121.753 335.012 120.398C333.475 119.044 331.288 118.367 328.449 118.367C325.454 118.367 323.072 119.031 321.301 120.359C319.53 121.661 318.358 123.302 317.785 125.281L302.395 124.031C303.176 120.385 304.712 117.234 307.004 114.578C309.296 111.896 312.251 109.839 315.871 108.406C319.517 106.948 323.736 106.219 328.527 106.219C331.861 106.219 335.051 106.609 338.098 107.391C341.171 108.172 343.892 109.383 346.262 111.023C348.658 112.664 350.546 114.773 351.926 117.352C353.306 119.904 353.996 122.964 353.996 126.531V167H338.215V158.68H337.746C336.783 160.555 335.493 162.208 333.879 163.641C332.264 165.047 330.324 166.154 328.059 166.961C325.793 167.742 323.176 168.133 320.207 168.133ZM324.973 156.648C327.421 156.648 329.582 156.167 331.457 155.203C333.332 154.214 334.803 152.885 335.871 151.219C336.939 149.552 337.473 147.664 337.473 145.555V139.188C336.952 139.526 336.236 139.839 335.324 140.125C334.439 140.385 333.436 140.633 332.316 140.867C331.197 141.076 330.077 141.271 328.957 141.453C327.837 141.609 326.822 141.753 325.91 141.883C323.957 142.169 322.251 142.625 320.793 143.25C319.335 143.875 318.202 144.721 317.395 145.789C316.587 146.831 316.184 148.133 316.184 149.695C316.184 151.961 317.004 153.693 318.645 154.891C320.311 156.062 322.421 156.648 324.973 156.648ZM411.328 124.109L396.094 125.047C395.833 123.745 395.273 122.573 394.414 121.531C393.555 120.464 392.422 119.617 391.016 118.992C389.635 118.341 387.982 118.016 386.055 118.016C383.477 118.016 381.302 118.562 379.531 119.656C377.76 120.724 376.875 122.156 376.875 123.953C376.875 125.385 377.448 126.596 378.594 127.586C379.74 128.576 381.706 129.37 384.492 129.969L395.352 132.156C401.185 133.354 405.534 135.281 408.398 137.937C411.263 140.594 412.695 144.083 412.695 148.406C412.695 152.339 411.536 155.789 409.219 158.758C406.927 161.727 403.776 164.044 399.766 165.711C395.781 167.352 391.185 168.172 385.977 168.172C378.034 168.172 371.706 166.518 366.992 163.211C362.305 159.878 359.557 155.346 358.75 149.617L375.117 148.758C375.612 151.18 376.81 153.029 378.711 154.305C380.612 155.555 383.047 156.18 386.016 156.18C388.932 156.18 391.276 155.62 393.047 154.5C394.844 153.354 395.755 151.883 395.781 150.086C395.755 148.576 395.117 147.339 393.867 146.375C392.617 145.385 390.69 144.63 388.086 144.109L377.695 142.039C371.836 140.867 367.474 138.836 364.609 135.945C361.771 133.055 360.352 129.37 360.352 124.891C360.352 121.036 361.393 117.716 363.477 114.93C365.586 112.143 368.542 109.995 372.344 108.484C376.172 106.974 380.651 106.219 385.781 106.219C393.359 106.219 399.323 107.82 403.672 111.023C408.047 114.227 410.599 118.589 411.328 124.109ZM434.314 132.313V167H417.674V87H433.846V117.586H434.549C435.903 114.044 438.09 111.271 441.111 109.266C444.132 107.234 447.921 106.219 452.479 106.219C456.645 106.219 460.278 107.13 463.377 108.953C466.502 110.75 468.924 113.341 470.643 116.727C472.387 120.086 473.247 124.109 473.221 128.797V167H456.58V131.766C456.606 128.068 455.669 125.19 453.768 123.133C451.893 121.076 449.262 120.047 445.877 120.047C443.611 120.047 441.606 120.529 439.861 121.492C438.143 122.456 436.788 123.862 435.799 125.711C434.835 127.534 434.34 129.734 434.314 132.313ZM551.715 115.008H534.605C534.293 112.794 533.655 110.828 532.691 109.109C531.728 107.365 530.491 105.88 528.98 104.656C527.47 103.432 525.725 102.495 523.746 101.844C521.793 101.193 519.671 100.867 517.379 100.867C513.238 100.867 509.632 101.896 506.559 103.953C503.486 105.984 501.103 108.953 499.41 112.859C497.717 116.74 496.871 121.453 496.871 127C496.871 132.703 497.717 137.495 499.41 141.375C501.129 145.255 503.525 148.185 506.598 150.164C509.671 152.143 513.225 153.133 517.262 153.133C519.527 153.133 521.624 152.833 523.551 152.234C525.504 151.635 527.236 150.763 528.746 149.617C530.257 148.445 531.507 147.026 532.496 145.359C533.512 143.693 534.215 141.792 534.605 139.656L551.715 139.734C551.272 143.406 550.165 146.948 548.395 150.359C546.65 153.745 544.293 156.779 541.324 159.461C538.382 162.117 534.866 164.227 530.777 165.789C526.715 167.326 522.118 168.094 516.988 168.094C509.853 168.094 503.473 166.479 497.848 163.25C492.249 160.021 487.822 155.346 484.566 149.227C481.337 143.107 479.723 135.698 479.723 127C479.723 118.276 481.363 110.854 484.645 104.734C487.926 98.6146 492.379 93.9531 498.004 90.75C503.629 87.5208 509.957 85.9062 516.988 85.9062C521.624 85.9062 525.921 86.5573 529.879 87.8594C533.863 89.1615 537.392 91.0625 540.465 93.5625C543.538 96.0365 546.038 99.0703 547.965 102.664C549.918 106.258 551.168 110.372 551.715 115.008ZM574.672 132.313V167H558.031V87H574.203V117.586H574.906C576.26 114.044 578.448 111.271 581.469 109.266C584.49 107.234 588.279 106.219 592.836 106.219C597.003 106.219 600.635 107.13 603.734 108.953C606.859 110.75 609.281 113.341 611 116.727C612.745 120.086 613.604 124.109 613.578 128.797V167H596.938V131.766C596.964 128.068 596.026 125.19 594.125 123.133C592.25 121.076 589.62 120.047 586.234 120.047C583.969 120.047 581.964 120.529 580.219 121.492C578.5 122.456 577.146 123.862 576.156 125.711C575.193 127.534 574.698 129.734 574.672 132.313ZM638.283 168.133C634.455 168.133 631.044 167.469 628.049 166.141C625.054 164.786 622.684 162.794 620.939 160.164C619.221 157.508 618.361 154.201 618.361 150.242C618.361 146.909 618.973 144.109 620.197 141.844C621.421 139.578 623.088 137.755 625.197 136.375C627.307 134.995 629.702 133.953 632.385 133.25C635.093 132.547 637.932 132.052 640.9 131.766C644.39 131.401 647.202 131.062 649.338 130.75C651.473 130.411 653.023 129.917 653.986 129.266C654.95 128.615 655.432 127.651 655.432 126.375V126.141C655.432 123.667 654.65 121.753 653.088 120.398C651.551 119.044 649.364 118.367 646.525 118.367C643.531 118.367 641.148 119.031 639.377 120.359C637.606 121.661 636.434 123.302 635.861 125.281L620.471 124.031C621.252 120.385 622.788 117.234 625.08 114.578C627.372 111.896 630.327 109.839 633.947 108.406C637.593 106.948 641.812 106.219 646.604 106.219C649.937 106.219 653.127 106.609 656.174 107.391C659.247 108.172 661.968 109.383 664.338 111.023C666.734 112.664 668.622 114.773 670.002 117.352C671.382 119.904 672.072 122.964 672.072 126.531V167H656.291V158.68H655.822C654.859 160.555 653.57 162.208 651.955 163.641C650.34 165.047 648.4 166.154 646.135 166.961C643.869 167.742 641.252 168.133 638.283 168.133ZM643.049 156.648C645.497 156.648 647.658 156.167 649.533 155.203C651.408 154.214 652.88 152.885 653.947 151.219C655.015 149.552 655.549 147.664 655.549 145.555V139.188C655.028 139.526 654.312 139.839 653.4 140.125C652.515 140.385 651.512 140.633 650.393 140.867C649.273 141.076 648.153 141.271 647.033 141.453C645.913 141.609 644.898 141.753 643.986 141.883C642.033 142.169 640.327 142.625 638.869 143.25C637.411 143.875 636.278 144.721 635.471 145.789C634.663 146.831 634.26 148.133 634.26 149.695C634.26 151.961 635.08 153.693 636.721 154.891C638.387 156.062 640.497 156.648 643.049 156.648ZM711.396 107V119.5H675.264V107H711.396ZM683.467 92.625H700.107V148.562C700.107 150.099 700.342 151.297 700.811 152.156C701.279 152.99 701.93 153.576 702.764 153.914C703.623 154.253 704.613 154.422 705.732 154.422C706.514 154.422 707.295 154.357 708.076 154.227C708.857 154.07 709.456 153.953 709.873 153.875L712.49 166.258C711.657 166.518 710.485 166.818 708.975 167.156C707.464 167.521 705.628 167.742 703.467 167.82C699.456 167.977 695.941 167.443 692.92 166.219C689.925 164.995 687.594 163.094 685.928 160.516C684.261 157.937 683.441 154.682 683.467 150.75V92.625Z" fill="white"/>
<path d="M69.7873 174.157C95.5861 154.118 96.0426 194.704 127.574 161.917M12 174.129L29.5073 174.156C32.0077 174.16 33.258 174.162 34.4347 173.893C35.4779 173.654 36.4753 173.26 37.3901 172.723C38.422 172.119 39.306 171.272 41.0741 169.58L124.373 89.8365C127.776 86.5785 128.622 81.5413 126.03 77.5605C122.896 72.7482 118.609 68.6101 113.62 65.538C109.622 63.0756 104.371 63.6149 101.009 66.8333L17.2002 147.065C15.4958 148.696 14.6435 149.512 14.0254 150.462C13.4772 151.304 13.0664 152.221 12.807 153.182C12.5144 154.265 12.4845 155.419 12.4248 157.726L12 174.129Z" stroke="white" stroke-width="16" stroke-linecap="round" stroke-linejoin="round"/>
</svg>
