<?xml version="1.0" encoding="UTF-8"?><svg id="Layer_1" xmlns="http://www.w3.org/2000/svg" width="520" height="520" viewBox="0 0 520 520"><defs><style>.cls-1{opacity:.15;}.cls-1,.cls-2,.cls-3{fill:#231f20;stroke-width:0px;}.cls-2{opacity:.25;}.cls-4{opacity:.45;}</style></defs><path class="cls-2" d="M99.23,56.73s30.49-6.54,32.37-9.75c1.88-3.21,1.11,3.22,3.03,8.41,1.92,5.19,6.63,8.61,8.58,10.07s1.95,9.74,1.39,14.45-1.8,13.4-5.09,16.66-11.48,7.24-11.48,7.24c0,0-7.34,3.95-11.11,4.33s-6.94-26.64-10.81-31.01-13.47-17.58-13.47-17.58l6.59-2.82Z"/><path class="cls-2" d="M161.06,154.12s12.95-22.62,14.19-26.09c1.24-3.48,6.52-17.26,6.52-17.26,0,0,9.47-6.36,9.75-4.51s-5.36,7.01-6.24,9.51c-.88,2.5-1.19,8.05-1.19,8.05,0,0,7.12-5.98,9.61-4.35,2.49,1.62,5.57,6.66,5.57,6.66l.33,6.06s-1.29,6.69-1.3,6.59.94,2.97-.7,1.71-2.76-3.83-5.35-2.77-4.8,3.93-6.09,7.59c-1.29,3.66-3.27,7.29-5.83,8.33-2.56,1.04-4,1.78-5.76,4.24-1.76,2.47-4.76,7.38-4.76,7.38l-10.28-7.38,1.52-3.74Z"/><path class="cls-3" d="M137.09,77.98c1.13.97,2.36,1.93,3.82,2.33s2.88.1,4.22-.52c.72-.33.95-1.42.54-2.05-.48-.74-1.29-.89-2.05-.54-.06.03-.13.05-.18.08.12-.07.25-.1.04-.02-.12.04-.23.08-.35.12-.13.04-.26.07-.39.1-.05.01-.12.01-.17.03.04-.01.36-.03.15-.02-.23.02-.46.02-.69,0-.26-.01.03-.01.12.02-.05-.02-.11-.02-.16-.03-.12-.02-.24-.05-.36-.09-.11-.03-.21-.07-.32-.11-.05-.02-.24-.1-.02,0,.24.1,0,0-.06-.03-.24-.12-.47-.25-.69-.39-.08-.05-.71-.51-.72-.5,0,0,.24.19.04.03-.06-.05-.12-.1-.18-.14-.15-.13-.31-.25-.46-.38-.59-.51-1.54-.63-2.12,0-.52.56-.64,1.58,0,2.12h0Z"/><path class="cls-3" d="M124.64,117.8c-.29.07-.5-.18-.67-.56-.05-.12,0-.47.08-.52.16-.09.33-.18.49-.25.1-.02,1.62-.23,2.14-.36.5-.08.99-.09,1.49-.1,1.01,0,2.02-.07,3.02-.12.22,0,.45,0,.67.04.77.13,1.54.09,2.3-.01.13-.02.26-.01.38-.11.2-.15,2.24-.38,2.51-.35.67.1,1.33.12,1.98.15.09,0,.19-.05.29.05.23.23.42.14.61.12.27-.03.52-.07.79-.04.12.02.28.13.45.21.15.07.27.44.24.5-.07.16.1.3.19.44.03.05.06.11.08.16.02.03-.38.5-.82.76-.45.31-.91.53-1.01.56-.06.04-2.59.49-2.87.52-.15.03-.3-.02-.46-.05-.07,0-2.07.26-2.15.24-.42-.02-.83.06-1.25-.15-.08-.04-.17-.03-.25-.03-.71.03-1.42-.06-2.13-.14-.36-.04-.72-.02-1.09-.04-.07,0-.13-.04-.2-.05-.08-.02-.16-.05-.25-.05-.86-.02-1.71-.17-2.57-.16-.2,0-1.12-.35-1.35-.35-.13,0-.52-.34-.63-.31Z"/><path class="cls-3" d="M129.35,125.38c-.19.01-.32-.18-.43-.41-.03-.07,0-.27.06-.3.13-.07.25-.14.34-.18.07-.02,1.13-.34,1.47-.38.34-.09.67-.11,1-.14l1-.09.99-.05c.15,0,.29,0,.43.04.5.12,1,.09,1.47-.01.08-.02.16-.02.23-.11.13-.13,1.36-.4,1.52-.39.41.05.82.03,1.21,0,.06,0,.1-.06.18.02.21.18.3.09.41.05.17-.04.32-.1.52-.09.1,0,.25.08.39.12.13.04.28.32.28.36-.01.13.14.22.23.33.03.04.07.08.09.12.01.02-.1.42-.32.76-.22.33-.5.64-.57.65,0,0-.12.06-.3.14-.17.09-.41.17-.64.27-.48.18-.98.33-1.07.37-.1.04-.22,0-.34-.02-.06.02-1.47.32-1.53.31-.3,0-.59.07-.89-.11-.06-.04-.12-.03-.18-.02-.5.03-.99-.06-1.48-.13-.25-.03-.5-.03-.75-.05-.04,0-.09-.04-.13-.05-.06-.02-.11-.06-.17-.06-.58-.07-1.15-.26-1.73-.3-.13-.02-.74-.29-.89-.35-.08-.03-.33-.32-.41-.3Z"/><path class="cls-3" d="M183.46,172.27c-.14.5-.26,1.01-.46,1.49-.06.18-.09.36-.17.53-.26.61-.55,1.21-.83,1.79-.12.26-.22.53-.32.79-.16.33-.34.65-.57.94-.07.09-.12.05-.17-.07-.05-.12-.13-.34-.12-.55l.03-.56c.02-.18.07-.35.12-.52.09-.34.2-.68.33-1.01.17-.4.18-.85.25-1.28.07-.47.18-.94.27-1.41.06-.29.11-.58.14-.88.05-.45.11-.9.09-1.34-.02-.35-.16-.68-.26-1.02-.02-.07-.06-.14-.08-.22-.02-.28.11-.37.56-.47l.31-.07c.35-.06.66.04.8.25.4.63.39,1.35.35,2.05-.04.52-.14,1.04-.24,1.56h-.04Z"/><path class="cls-3" d="M166.03,163.43c-.66-.52-1.26-1.11-1.87-1.69-.22-.21-.47-.38-.69-.6-.74-.79-1.47-1.57-2.12-2.42-.3-.37-.61-.72-.93-1.06-.2-.22-.4-.45-.6-.67-.09-.12-.15-.27-.21-.41-.07-.14-.12-.29-.14-.46-.02-.22,0-.2.22-.19.25,0,.7-.01,1.02.14.91.76,1.83,1.46,2.56,2.4.44.56,1.08.96,1.64,1.41.61.51,1.24,1,1.87,1.49.39.3.78.61,1.18.88.61.43,1.23.86,1.89,1.19.51.26,1.07.41,1.61.6.12.04.24.07.36.12.43.18.5.37.38.89-.03.12-.05.24-.08.35-.12.38-.44.6-.82.57-1.12-.11-2.23-.45-3.19-1.06-.73-.43-1.42-.93-2.1-1.43l.03-.04Z"/><path class="cls-3" d="M172.82,160.33s11.77,6.53,9.44,9.1c-2.33,2.57-11.1-2.52-11.1-2.52l1.66-6.58Z"/><path class="cls-3" d="M76.29,139.94c1.27-1.5,2.58-2.95,3.95-4.36.49-.52.97-1.05,1.48-1.55,1.8-1.76,3.68-3.43,5.62-5.02.86-.71,1.71-1.43,2.56-2.14,1.14-.85,2.19-1.82,3.55-2.36.41-.19.39-.1.19.25-.14.24-.29.5-.42.73-.09.15-.18.32-.29.47-.13.14-.27.27-.42.4-2.14,1.9-4.38,3.65-6.58,5.51-1.33,1.1-2.55,2.42-3.78,3.69-1.35,1.39-2.66,2.83-3.91,4.31-.77.91-1.53,1.84-2.25,2.79-1.1,1.44-2.15,2.92-3.1,4.45-.71,1.2-1.32,2.43-1.9,3.67l-.38.82c-.48,1.02-.73,1.3-1.21,1.34-.11.01-.23.04-.32.03-.34-.03-.37-.56-.08-1.37.86-2.39,2.16-4.74,3.67-6.93,1.12-1.64,2.33-3.22,3.59-4.75l.03.02Z"/><path class="cls-3" d="M138.43,116.38c-.48-1.2-1.22-2.27-2.01-3.3-.31-.36-.68-.66-.99-1.02-1.18-1.2-2.55-2.23-4.08-3.01-.7-.29-1.39-.65-2.13-.83-.94-.26-1.88-.54-2.84-.83-.3-.1-.25-.13.02-.19.27-.05.78-.17,1.39-.19,2.1.11,4.18.84,5.94,2.05.51.39,1.08.7,1.58,1.12.52.39,1.05.79,1.5,1.27,1.04,1,1.85,2.2,2.57,3.43.39.79.78,1.58,1.06,2.41.47,1.25.68,2.57.88,3.87.04.51.1,1.01.16,1.52.04.51.04,1.02.03,1.53,0,.23,0,.45-.05.67-.13.83-.35,1.07-.73,1.16-.09.02-.18.05-.26.06-.28.01-.47-.36-.53-.94-.11-1.7-.07-3.39-.4-5.09-.11-.63-.28-1.25-.44-1.87-.23-.6-.39-1.23-.7-1.8l.03-.02Z"/><path class="cls-3" d="M142.53,40.73c-2.12-6.2-24.17-26.61-42.89-14.82-2.41,1.52-2.58,3.55-2.58,3.55,0,0-11.84-6.56-21.93.56-10.08,7.12-18.54,19.02-20.99,25.24-2.45,6.22-8.24,30.71-9.13,37.45-1.41,10.64,2.38,38.17,9.91,35.09,7.53-3.09,31.36-12.36,34.75-12.12,3.39.24,28.68-3.71,28.68-3.71,0,0-7.46-24.24-11.08-32.33-4.12-9.21-11.46-20.93-11.46-20.93,3.08-.38,13.2,1.25,32.47-9.78,3.15-1.8,14.24-8.18,14.24-8.18Z"/><path class="cls-3" d="M174.81,159.29c-.3.56-.6,1.14-.85,1.73-.1.22-.11.45-.21.67-.34.76-.67,1.54-.94,2.33-.13.35-.19.72-.23,1.08-.05.47,0,.95-.42,1.38-.15.13-.4.09-.76-.07-.39-.17-.86-.46-.95-.76-.04-1.03.03-2.07.56-3.01.29-.56.33-1.21.52-1.81.21-.66.46-1.3.73-1.94.17-.39.33-.78.5-1.17.25-.59.54-1.16.76-1.75.17-.46.2-.97.31-1.46.02-.11.02-.22.06-.33.13-.39.42-.39,1.03-.17.14.05.29.09.42.15.46.19.77.53.85.87.07.94-.18,1.75-.5,2.54-.27.57-.54,1.15-.81,1.73l-.06-.02Z"/><path class="cls-3" d="M144.94,88.12c-.26.74-.44,1.49-.8,2.2l-1.01,2.12c-.33.71-.81,1.34-1.21,2l-.63.98c-.2.33-.49.61-.73.91-.75.85-1.33,1.85-2.22,2.56-.75.65-1.44,1.38-2.24,1.94l-2.42,1.68c-1.71.94-3.38,1.94-5.19,2.59l-2.35,1c-.8.28-1.6.56-2.39.83-1.01.38-2.04.73-3.1.93-.53.12-1.05.23-1.58.33l-.8.14c-.27.04-.54.03-.81.05-.68,0-.61-.11-.14-.54.46-.49,1.34-1.19,2.47-1.62l1.5-.56c.48-.23.97-.44,1.47-.63.98-.4,1.99-.74,2.95-1.16.95-.45,1.9-.89,2.87-1.32.5-.19.93-.49,1.39-.73.46-.25.93-.49,1.4-.72.28-.14.57-.29.85-.44l.77-.56c.51-.38,1.02-.77,1.54-1.16.53-.37.92-.89,1.39-1.33.44-.47.93-.88,1.34-1.37,1.83-2.12,3.3-4.53,4.34-7.16.29-.82.53-1.66.8-2.49.15-.41.24-.84.32-1.28l.25-1.29.19-.98.1-1,.21-2.01c.05-1.35.09-2.7.02-4.03-.08-1.04-.2-2.07-.34-3.09-.2-1.02-.39-2.03-.54-3.05-.06-.45-.18-.88-.25-1.34-.16-.84-.08-1.42,0-1.83.08-.41.29-.68.58-.92.13-.11.24-.24.35-.31.34-.23.99.37,1.47,1.59,1.35,3.63,1.78,7.72,1.67,11.86.01.77-.05,1.54-.13,2.31-.08.77-.14,1.55-.25,2.32-.32,1.54-.52,3.09-1.06,4.59l-.07-.02Z"/><path class="cls-3" d="M92.4,25.5c-.56-.69-1.2-1.36-1.94-1.95-.27-.22-.6-.33-.88-.54-1.03-.65-2.11-1.39-3.32-1.84-.54-.19-1.1-.34-1.65-.45-.72-.13-1.44-.21-2.17-.48-.23-.08-.19-.18.01-.34.2-.14.59-.43,1.05-.5,1.58-.09,3.22.01,4.74.61.9.35,1.9.6,2.78,1.1.98.51,1.89,1.18,2.72,1.93l.72.74c.23.26.44.53.66.8.35.39.59.86.88,1.28.25.45.5.9.75,1.35.17.36.39.7.61,1.04.19.35.37.72.54,1.09.08.16.15.32.2.5.15.65,0,.89-.68,1.13-.16.05-.31.12-.47.16-.54.13-1.04-.04-1.3-.39-.78-1.04-1.2-2.07-1.78-3.07-.19-.39-.46-.72-.68-1.1-.28-.33-.5-.72-.83-1.02l.05-.05Z"/><path class="cls-3" d="M135.66,55.16c.43,1.3.94,2.58,1.61,3.77.24.44.57.81.84,1.22.95,1.44,2.04,2.85,3.51,3.75.65.39,1.36.69,2.08.83.95.18,1.87.13,2.93.31.34.09.36.25.15.63-.11.18-.26.48-.49.7-.23.21-.54.42-.89.52-1.25.29-2.6.14-3.83-.25-1.2-.47-2.26-1.2-3.11-2.08-1.02-1.04-2.11-2.03-2.94-3.21-.91-1.29-1.62-2.68-2.23-4.09-.38-.87-.7-1.76-.99-2.65-.43-1.36-.73-2.75-1.06-4.12-.26-1.06-.65-2.09-.77-3.19-.04-.24-.09-.47-.1-.72-.05-.45.11-.76.24-.97.15-.21.35-.33.63-.43.13-.04.25-.1.37-.12.4-.08.79.27,1.13.85.26.43.36.87.56,1.3.15.44.38.86.47,1.3.24.88.47,1.77.71,2.66.37,1.32.79,2.63,1.25,3.92l-.07.03Z"/><path class="cls-3" d="M98.68,112.59c3.24-.47,6.5-.87,9.75-1.2l4.87-.47,2.41-.23c.27-.03.4-.01.62-.07,0-.16-.05-.37-.08-.55l-.06-.28-.21-.84c-.27-1.12-.54-2.25-.85-3.37-2.06-7.96-4.8-15.83-7.94-23.51-.69-1.71-1.47-3.38-2.2-5.07-.79-1.66-1.58-3.32-2.36-4.97-2.02-4.24-4.29-8.33-6.73-12.33-.72-1.29-.64-1.13.35-.32.48.41,1.24.96,2.04,1.73.79.77,1.68,1.72,2.47,2.86,2.85,4,5.44,8.18,7.46,12.62,2.05,4.43,3.76,9.01,5.32,13.65,1.83,5.57,3.99,11.26,5.38,17.16l.28,1.22c.04.23.11.35.12.66l.06.88.12,1.74.06.87c-.18.04-.14.24-.27.3-.1.08-.22.15-.33.21-.48.26-1.14.39-1.8.48l-.99.13-.62.07-2.44.27c-3.24.35-6.47.74-9.68,1.2-3.96.57-7.9,1.24-11.83,2.01-5.94,1.19-11.87,2.59-17.6,4.41-4.46,1.42-8.7,3.17-12.92,5-.92.42-1.83.83-2.76,1.25-1.73.77-2.91,1.18-3.79,1.37-.9.14-1.48.09-2.03-.12-.25-.09-.55-.16-.72-.27-.29-.2-.14-.57.38-1.11.52-.54,1.39-1.28,2.65-1.95,7.42-3.99,15.83-7,24.41-9.35,6.38-1.73,12.88-3.13,19.42-4.14l.02.09Z"/><path class="cls-3" d="M59.69,48.8c-3.22,5.63-5.85,11.65-7.88,17.88-.39,1.13-.7,2.29-1.01,3.44-.33,1.15-.62,2.31-.91,3.47-.56,2.04-.99,4.11-1.45,6.17-.38,2.08-.8,4.15-1.09,6.25-.34,2.09-.56,4.2-.82,6.31-.16,2.11-.39,4.23-.45,6.35l-.11,2.83v2.83c-.01,1.89.11,3.77.17,5.64.28,4.81.88,9.59,1.18,14.43.05,1.52-.08,1.34-.6.13-.52-1.21-1.57-3.44-2.02-6.23-.79-4.93-1.32-9.92-1.41-14.94-.06-5.02.16-10.06.85-15.06.82-5.98,1.75-12.2,3.35-18.18,1.76-6.56,4.09-12.99,7.17-19.06,1.89-3.74,4.04-7.35,6.5-10.76,1.87-2.57,3.93-5.03,6.24-7.25,2.31-2.22,4.87-4.22,7.77-5.69.57-.27,1.14-.55,1.72-.81l1.79-.66,1.87-.47c.62-.09,1.24-.22,1.87-.27,2.51-.27,5.07-.07,7.53.52,1.08.28,2.14.56,3.18.99,3.86,1.64,4.69,2.92,4.87,4.08.03.28.11.59.08.81-.13.73-1.66.15-4.1-.95-3.64-1.64-7.69-2.45-11.61-2-3.84.36-7.42,2.51-10.66,5.18-4.8,4.06-8.71,9.4-11.95,15.04l-.08-.03Z"/><path class="cls-3" d="M141.01,114.55c.68,1.24,1.13,2.62,1.49,4.01.09.73.3,1.42.27,2.17v1.1s-.11,1.08-.11,1.08c-.14,1.04-.32,2.08-.71,3.04-1.36,3.39-3.8,6.07-6.65,7.95-1.25.86-2.58,1.58-3.93,2.21-1.72.84-3.69,1.22-5.59,1.08-.59-.03-.51-.07-.04-.3.23-.12.55-.29.93-.5.37-.24.79-.53,1.25-.73.8-.46,1.61-.79,2.4-1.2.78-.42,1.54-.86,2.26-1.37,1.46-.99,2.75-2.17,4.03-3.38,1.5-1.49,2.5-3.52,2.99-5.53.54-2.22.37-4.52-.56-6.73-.53-1.36-1.3-2.65-2.23-3.82-1.4-1.78-3.1-3.38-5.05-4.55-.37-.24-.76-.44-1.16-.61-.4-.17-.79-.37-1.2-.49l-1.22-.42-1.24-.32c-.36-.12-.73-.11-1.09-.21-.66-.22-1.1-.36-1.4-.55-.3-.21-.46-.47-.58-.83-.06-.17-.14-.33-.17-.49-.1-.52.55-.91,1.79-1.03.89-.03,1.83.01,2.71.23.91.17,1.79.45,2.67.77,1.71.74,3.35,1.71,4.81,2.91,2.19,1.75,4.03,3.96,5.4,6.48l-.06.04Z"/><path class="cls-3" d="M140,146.51l.64.8.69.76c.45.52.95,1,1.46,1.48.36.36.79.64,1.17.97,1.33,1.21,2.74,2.37,4.26,3.37.68.44,1.39.82,2.1,1.18.45.25.93.42,1.39.65.45.26.9.49,1.36.77.28.18.2.31-.13.44-.32.11-.95.32-1.59.24-1.08-.27-2.15-.63-3.15-1.11-.48-.27-.96-.54-1.44-.83-.46-.31-.91-.63-1.35-.97-1.04-.83-2.24-1.5-3.28-2.37-.57-.48-1.11-.99-1.67-1.49-.52-.54-1.05-1.06-1.56-1.61-.6-.7-1.21-1.38-1.74-2.14-.21-.28-.42-.56-.62-.85l-.55-.9c-.39-.58-.67-1.24-1-1.86-.47-.99-.99-1.97-1.24-3.1-.05-.25-.18-.48-.18-.74-.03-.96.17-1.27.77-1.4.14-.03.28-.07.41-.08.46-.02.85.34,1.02.87.45,1.56,1.04,3.07,1.93,4.6.7,1.1,1.43,2.23,2.33,3.27l-.04.04Z"/><path class="cls-3" d="M69.64,148.44c1.63-2.57,3.3-5.1,5.11-7.54.65-.89,1.23-1.84,1.94-2.69,2.41-3.07,5.05-5.94,7.82-8.67,1.2-1.24,2.45-2.44,3.68-3.63.83-.72,1.6-1.52,2.48-2.17.88-.66,1.81-1.26,2.82-1.76.62-.31.65-.12.43.51-.11.32-.28.76-.49,1.27-.23.49-.54.99-.95,1.46-2.92,3.28-6.13,6.15-9.22,9.31-1.88,1.86-3.44,4.14-5.05,6.3-1.72,2.42-3.44,4.85-4.98,7.4-.99,1.55-1.88,3.15-2.79,4.75-1.31,2.45-2.63,4.93-3.73,7.47-.42.99-.81,1.98-1.16,2.99-.34,1.01-.66,2.02-1.03,3.02-.16.44-.27.89-.48,1.31-.71,1.6-1.14,2.03-1.9,2.14-.18.02-.36.08-.51.07-.53-.02-.68-.85-.46-2.16.26-1.97.91-3.85,1.6-5.74.74-1.88,1.53-3.77,2.43-5.61,1.31-2.75,2.85-5.42,4.39-8.07l.07.03Z"/><path class="cls-3" d="M173.08,128.56c1.67-4.07,3.18-8.21,4.63-12.4l.76-2.32c.12-.38.26-.78.4-1.19l.22-.6c.06-.18.23-.52.36-.77.19-.4.38-.61.58-.86.2-.24.41-.47.63-.69.43-.44.88-.83,1.35-1.2.93-.74,1.93-1.33,2.95-1.86,1.03-.52,2.08-.98,3.2-1.33.28-.09.57-.17.86-.24.32-.08.82-.18,1.22-.21.82-.06,1.66.04,2.15.7.29.42.44.9.53,1.39.04.51-.08,1.02-.25,1.52-.44,1.12-.85,1.57-1.32,2.19-.85,1.04-1.78,1.95-2.7,2.85l-1.37,1.32c-.43.42-.92.89-1.17,1.24-.03.04-.13.27-.2.41-.08.16-.13.34-.2.5-.12.35-.23.71-.33,1.08l-.56,2.3c-.4,1.55-.76,3.23-1.75,4.67-.37.41-.57.55-.61.51-.05-.05.04-.3.04-.75.04-.92-.18-2.46.03-4.29.09-.71.15-1.43.28-2.17.15-.74.33-1.49.61-2.27.08-.2.14-.39.23-.59l.14-.3c.05-.1.08-.18.19-.36.37-.57.62-.8.9-1.11.54-.57,1.07-1.05,1.58-1.54,1.03-.97,2.04-1.92,2.87-2.9.2-.24.4-.49.56-.73.09-.12.16-.25.23-.34l.05-.05c.06-.07.12-.2.08-.34-.02-.09-.11-.11-.19-.13-.04,0-.09-.01-.14-.01-.03,0-.04,0-.08,0l-.26.06c-1.7.42-3.47,1.33-4.98,2.44-.76.56-1.46,1.16-2.05,1.82-.14.17-.28.33-.41.5l-.05.06-.02.03h0c-.27-.18.6.43-.6-.42l.04.03.16.12.33.25c.08.06.06.05.06.05h0s0,.02,0,.02v.03s-.03.05-.03.05c-.03.07-.05.13-.09.2-.03.04-.07.16-.12.28l-.13.34-.26.68c-1.47,4.18-2.96,8.46-4.61,12.63-1.01,2.58-2.09,5.13-3.21,7.67-1.73,3.82-3.61,7.6-5.7,11.23-.8,1.42-1.66,2.78-2.45,4.19l-1.35,2.02c-.45.67-.88,1.36-1.42,1.98-.45.56-.88,1.13-1.35,1.69-1.81,2.02-2.72,2.36-3.56,2.22-.2-.03-.42-.04-.58-.11-.5-.22-.06-1.34,1.16-2.71,3.56-4.14,6.6-9.16,9.26-14.42,2.01-3.9,3.77-7.97,5.4-12.09l.07.02Z"/><path class="cls-3" d="M193.34,127.67c-.84-.47-1.48-.75-2.48-.58-.36.07-.7.23-1.08.37-1.34.46-2.7,1.26-4.01,2.13-.58.39-1.12.85-1.64,1.31-.67.59-1.28,1.31-2.37,1.44-.32.05-.27.05-.21-.25.03-.15.05-.39.05-.7.03-.28.11-.54.24-.78.11-.22.25-.4.42-.56l.47-.51c.32-.34.65-.67,1-.99.69-.64,1.43-1.26,2.31-1.72,1.03-.57,1.98-1.36,3.18-1.87.66-.26,1.37-.48,2.15-.53.78-.09,1.59.08,2.29.31.87.32,1.59.81,2.27,1.31,1.02.78,1.84,1.73,2.63,2.66.61.73,1.29,1.41,1.84,2.26.12.19.26.37.36.57.3.8.09,1.19-.52,1.48-.14.07-.28.15-.42.2-.49.15-.98-.02-1.35-.34-.97-1.01-1.79-2.19-2.79-3.23-.73-.77-1.53-1.47-2.35-1.91l.03-.06Z"/><path class="cls-3" d="M196.41,142.16l-.26-.13-.33-.25c-.11-.07-.22-.16-.35-.33l-.38-.45c-.25-.31-.5-.74-.73-1.06l-.3-.29c-.08-.08-.24-.25-.24-.22-.24-.13-.58-.23-1.11-.15-1.13.17-2.19.6-2.94,1.36-.55.58-.93,1.37-1.3,2.23-.65,1.56-1.14,3.37-1.91,5.21-.37.92-.88,1.82-1.47,2.67-.65.84-1.35,1.56-2.13,2.17-1.36,1.13-2.94,2.06-4.66,2.53-1.09.3-2.22.5-3.34.47-1.12-.04-2.21-.29-3.22-.72-.6-.45-.52-.31.08-.57.3-.14.71-.28,1.19-.46.48-.2,1.01-.38,1.55-.46.97-.19,1.9-.28,2.77-.6.87-.29,1.67-.7,2.47-1.14.79-.46,1.53-1.03,2.22-1.7.67-.64,1.21-1.28,1.68-2.15.57-1,.94-2.21,1.29-3.48.35-1.28.71-2.65,1.42-3.99.75-1.47,2.11-2.85,3.71-3.49.2-.08.39-.18.59-.24l.6-.16c.4-.11.8-.21,1.26-.24.22-.03.45-.04.69-.02.24.02.47.01.71.08.24.06.48.09.71.21.23.1.5.21.55.27.16.1.23.17.3.24.07.08.14.16.2.25.13.18.24.39.37.59.06.1.13.2.23.28.1.08.23.05.32,0,.19-.11.3-.32.36-.54.16-.66,0-1.38-.33-2.06-.26-.51-.62-1.02-1.03-1.44-.23-.25-.37-.33-.59-.46l-.35-.15-.4-.1c-.87-.18-1.86-.09-2.8.09-.95.19-1.89.47-2.81.81-.41.14-.78.33-1.18.49-1.44.65-1.94.66-2.57.34-.15-.08-.32-.13-.44-.22-.43-.26-.07-1.11,1.08-1.91,1.72-1.07,3.62-1.81,5.74-2.19,1.07-.18,2.18-.29,3.47-.07.65.14,1.35.31,2.08.82.17.12.39.27.49.37l.34.33c.23.21.42.46.63.7.28.36.55.74.78,1.14.3.56.62,1.29.8,1.93.38,1.33.41,2.58.16,3.58-.27.99-.77,1.75-1.64,2.28-.24.08-.46.23-.7.27-.22.03-.37.04-.49.04-.25-.01-.46-.05-.81-.19l-.02-.11Z"/><path class="cls-3" d="M184.13,173.66c-.31.64-.62,1.28-.93,1.92-.11.24-.15.49-.3.72-.46.82-.96,1.62-1.46,2.41-.22.35-.42.72-.64,1.06-.31.43-.67.83-1.11,1.14-.13.1-.18.03-.2-.16-.01-.18-.04-.5.04-.78.21-1.03.58-1.87,1.02-2.78.29-.53.35-1.18.52-1.78.22-.66.44-1.32.66-1.98.14-.41.28-.82.42-1.23.2-.63.46-1.25.62-1.9.13-.5.11-1.06.18-1.61.01-.12,0-.25.04-.37.18-.41.42-.45,1.12-.21.16.06.32.11.47.17.52.22.88.57.95.91.16.96-.2,1.72-.52,2.57-.28.63-.55,1.26-.83,1.89l-.06-.02Z"/><path class="cls-3" d="M133.59,25.36c2.2,1.81,4.25,3.77,6.16,5.87.96,1.05,1.88,2.13,2.75,3.26.44.57.87,1.14,1.28,1.74l.31.45.34.53c.3.53.53,1.05.8,1.57.07.08.1.15.1.23l.04.22.08.45.04.22v.03c-.06,0,.15.02-.14-.02h0s0,0,0,0h0s0,.01,0,.01v.02s0,.06,0,.06v.11c-.02.15-.03.28-.1.42-.16.34-.49.65-.85.93-.36.29-.76.55-1.15.81l-.8.51-.71.43c-.94.57-1.89,1.12-2.85,1.63-6.79,3.59-13.75,6.74-20.89,9.52-3.17,1.22-6.36,2.44-9.6,3.43-2.08.63-4.2,1.2-6.37,1.58-1.08.2-2.19.32-3.3.33-.28,0-.56.02-.84-.02-.28-.05-.56-.1-.84-.16-.55-.12-1.1-.2-1.64-.35-.67-.18-.94-.33-.91-.37.03-.06.37-.03.94-.1.57-.07,1.38-.22,2.29-.69.46-.22.95-.3,1.47-.46.26-.07.53-.15.8-.23.28-.06.56-.12.85-.18,4.14-.84,8.2-2.32,12.28-3.77,4.06-1.5,8.1-3.18,12.14-4.91,4.83-2.07,9.65-4.72,14.26-7.41l1.11-.66.87-.54c.23-.15.67-.33.41-.65l-.17-.24s-.05-.06-.1-.14l-.2-.31c-.29-.41-.57-.82-.88-1.23-.6-.81-1.25-1.6-1.92-2.38-1.34-1.55-2.77-3.03-4.27-4.44-2.62-2.45-5.45-4.7-8.5-6.56-2.32-1.38-4.75-2.61-7.31-3.39-2.54-.81-5.22-1.17-7.8-.85-1.99.25-3.91.94-5.57,1.96-1.68,1-3.03,2.43-4.13,4.02-.47.71-.86,1.46-1.23,2.24-1.28,2.94-1.75,3.91-2.66,4.46-.21.13-.42.31-.6.38-.31.11-.51-.2-.61-.9-.08-.69-.07-1.77.27-3.11.54-1.96,1.45-3.89,2.72-5.66,1.26-1.77,2.97-3.3,4.93-4.43,1.96-1.11,4.12-1.83,6.37-2.14,2.24-.3,4.51-.18,6.67.24,3.21.63,6.2,1.85,8.97,3.35,2.77,1.51,5.34,3.29,7.74,5.23l-.05.07Z"/><path class="cls-3" d="M193.77,121.31c-.44-.32-.88-.49-1.31-.57-.24-.02-.51-.04-.79-.03-.29.05-.58.05-.88.15-.45.1-.86.34-1.32.51-1.6.65-3.17,1.63-4.63,2.75-.64.51-1.23,1.08-1.82,1.64l-1.09,1.12c-.17.2-.37.37-.58.53-.21.16-.41.33-.63.49-.35.15-.33.12-.38-.27-.03-.2-.02-.45,0-.74.05-.28.05-.66.25-.91.64-.93,1.31-1.84,2.1-2.64.82-.77,1.71-1.48,2.67-2.09,1.16-.72,2.27-1.63,3.6-2.25.73-.34,1.53-.59,2.37-.75.45-.02.87-.12,1.34-.04l.69.1c.22.06.43.14.64.22,1.02.4,1.87,1.02,2.56,1.72,1.08,1.05,1.87,2.28,2.59,3.53.54.98,1.15,1.93,1.5,3.12.09.25.17.52.19.83.08.53-.07,1.01-.23,1.23-.24.27-.55.34-.91.28-.17-.03-.33-.06-.48-.12-.25-.11-.44-.31-.61-.47l-.23-.21c-.08-.08-.13-.17-.16-.25-.19-.54-.5-1.29-.86-2.01-.35-.74-.76-1.5-1.23-2.2-.69-1.03-1.51-2.06-2.42-2.6l.03-.06Z"/><path class="cls-3" d="M168.74,163.05c1.68,1.01,3.42,1.93,5.21,2.75.65.29,1.34.48,2,.75,1.11.47,2.24.91,3.38,1.24.57.16,1.13.3,1.69.39l.41.06c.14.02.28.02.31.03.12.01.3.04.42-.02h.13c.15,0,.28-.1.29-.25.02-.14,0-.28-.04-.41-.04-.14-.1-.27-.15-.39-.02-.09-.06-.07-.1-.21l-.16-.37c-.58-1.33-1.16-2.63-1.76-4-.19-.43-.16-.38.19-.16.33.24,1.12.55,1.82,1.15.42.36.82.75,1.22,1.15.19.21.41.4.55.65l.23.36.11.19.05.1.09.18c.26.46.46.96.66,1.45l.09.72c.02.24-.02.45-.03.67-.03.22-.09.42-.16.62-.12.17-.23.35-.39.51-.12.19-.36.25-.48.45l-.57.31c-.45.05-.85.18-1.27.24-.21.03-.45.02-.68.01-.24,0-.33,0-.48-.03-.56-.06-1.09-.18-1.61-.31-1.92-.54-3.83-.94-5.62-1.67-1.95-.8-3.82-1.75-5.64-2.77-1.12-.63-2.21-1.3-3.3-1.98-1.64-1.04-3.21-2.19-4.76-3.35-1.2-.9-2.46-1.73-3.6-2.8-.25-.23-.51-.46-.73-.74-.84-1.02-.86-1.57-.32-2.16.12-.14.24-.29.38-.4.49-.37,1.11-.19,1.7.31,1.8,1.49,3.8,3.05,5.96,4.54,1.6,1.1,3.26,2.17,4.99,3.12l-.03.07Z"/><path class="cls-3" d="M92.43,149.7c-.63,0-1.14-.27-1.58-.58-.14-.1-.1-.35.09-.39.39-.08.77-.15,1.08-.21.11,0,1.04-.11,2.08-.15,1.04-.03,2.2-.08,2.79-.12,1.14-.07,2.27-.09,3.41-.09l6.91-.08c.51,0,1.02.02,1.53.06,1.75.16,3.51.13,5.26.02.29-.02.59-.01.87-.12.46-.16,5.21-.41,5.83-.38,1.53.1,3.07.12,4.61.17.22,0,.45-.05.66.06.48.26.95.18,1.42.16.66-.02,1.32,0,1.98.04.33.03.66.17.99.29.3.1.18.56.08.61-.29.16-.03.36.02.54.01.06.03.14.02.19-.02.12-3.76,1.21-4.19,1.19-.05,0-1.47.13-2.95.26-1.48.12-3.03.24-3.35.26-.33.04-.67-.02-1-.06-.16,0-4.62.27-4.8.25-.93-.03-1.85.06-2.78-.18-.18-.05-.37-.04-.55-.03-1.59.01-3.18-.11-4.77-.21-.81-.05-1.62-.06-2.43-.09-.15,0-.29-.04-.44-.07-.18-.03-.37-.07-.55-.08-1.92-.11-3.83-.35-5.75-.44-.44-.02-2.53-.41-3.04-.44-.29,0-1.19-.41-1.45-.4Z"/><path class="cls-3" d="M101.23,162.33c-.75.02-1.35-.35-1.89-.54-.17-.07-.13-.19.08-.22.42-.05.85-.14,1.28-.22.26,0,4.38-.12,5.78-.26,1.35-.12,2.7-.08,4.05-.08,2.74.01,5.49,0,8.23-.06.61,0,1.22.01,1.82.05,2.08.16,4.17.12,6.26.06.35-.01.7,0,1.04-.1.55-.16,6.21-.28,6.94-.23,1.82.15,3.64.21,5.46.28.26.01.53-.04.78.07.56.27,1.12.18,1.68.17.78-.01,1.56.02,2.34.06.39.03.78.17,1.17.27.35.1.2.53.08.59-.34.16-.04.34,0,.51.02.06.04.14.02.19-.01.05-1.14.37-2.33.67-1.19.3-2.44.53-2.69.54-.06,0-1.75.11-3.51.23-1.76.1-3.6.2-3.98.22-.39.03-.79-.03-1.18-.07-.19,0-5.48.18-5.69.19-1.1-.04-2.19.05-3.28-.23-.21-.05-.44-.05-.66-.05-1.88-.04-3.76-.2-5.64-.35-.96-.05-1.92-.1-2.88-.15-.17,0-.34-.05-.52-.07-.22-.03-.43-.07-.65-.08-2.27-.12-4.54-.33-6.81-.47-.52-.05-3-.51-3.6-.56-.34-.04-1.42-.36-1.72-.36Z"/><path class="cls-3" d="M128.84,57.92c.16-.62.1-1.55-.15-2.08-.09-.2-.23-.28-.27-.4,0-.19-.49-.38-1.06-.38-.57-.01-1.22.1-1.85.26-.56.15-1.1.39-1.63.64-.34.16-.69.32-1.05.46-.18.07-.36.14-.55.2-.09.03-.19.05-.29.08-.1.02-.22,0-.33,0-.29-.04-.27-.09-.2-.4.05-.36.19-.88.53-1.17.31-.26.62-.53.95-.76.34-.22.69-.43,1.06-.62.74-.38,1.54-.7,2.45-.84.55-.07,1.11-.2,1.79-.21.34,0,.71.05,1.13.15.38.16.73.37,1.01.61.61.56.94,1.22,1.16,1.85.21.63.32,1.26.35,1.9.02.4,0,.79-.06,1.21-.09.45-.22.97-.64,1.46-.31.38-.85.63-1.31.66-.47.04-.87-.07-1.21-.21-.67-.31-1.18-.77-1.57-1.35-.31-.47-.51-.92-.68-1.36-.17-.44-.3-.89-.36-1.37-.03-.21-.08-.42-.07-.64.05-.82.43-1.11,1.3-.93.2.04.4.08.59.15.63.26,1.09.6,1.24.88.21.46.43.96.57,1.33.07.19.15.31.15.28,0,0,.04.04.05.06,0,.01.02-.02-.02.04-.03.05-.06.11-.08.17-.06.13-.1.28-.14.43-.07.31.01.57.02.57l-.03-.03s-.07-.07-.1-.09c-.14-.12-.25-.15-.51-.27-.1-.05-.25-.06-.32-.09,0,0,0-.02.02-.02.02,0,.03-.11.05-.16h.08Z"/><path class="cls-3" d="M299.53,125.69c.48.26.95.57,1.46.8.18.09.38.12.56.21.65.29,1.31.62,2,.86.31.11.62.17.93.23.2.03.4.07.6.16.2.09.4.09.61.15.25.06-.08.18-.57.32-.45.23-.88.17-1.32.19-.44,0-.87-.04-1.3-.15-.51-.11-1.05-.19-1.58-.3-.57-.15-1.13-.34-1.68-.54-.34-.13-.67-.29-1-.44-.5-.22-.98-.49-1.49-.68-.39-.15-.83-.2-1.23-.36-.09-.03-.18-.05-.26-.09-.3-.17-.33-.34-.15-.8.04-.1.08-.21.12-.31.16-.34.43-.54.71-.55.4,0,.79,0,1.14.11.34.11.67.27,1,.42.49.23.97.49,1.46.72l-.02.05Z"/><path class="cls-3" d="M293.83,135.39s-.07.06-.09.1c0,.02.01.04.03.06.03.04.08.07.15.11.04.02.11.04.17.05l.1.03h.03s.09.01.09.01l.19.02c.5.04,1,.1,1.5.11.73.03,1.46-.03,2.19-.01,2.59.07,5.21-.11,7.75-.72,1.11-.3,2.21-.69,3.23-1.2.69-.26,1.29-.68,1.95-1,.33-.15.64-.35.96-.53.31-.19.7-.28,1.05-.42.46-.15.59.1.51.66-.04.28-.13.65-.28,1.07-.17.39-.43.78-.81,1.05-.68.46-1.36.97-2.08,1.37-.74.37-1.48.76-2.26,1.02-.78.28-1.56.55-2.36.72-.8.21-1.61.35-2.42.43-1.94.22-3.92.66-5.92.74-1.09.05-2.19.01-3.28-.04l-1.16-.09c-.4-.04-.81-.05-1.18-.14-.37-.08-.78-.13-1.11-.23l-.84-.39c-.15-.09-.33-.14-.44-.26-.07-.14-.05-.36-.04-.51.04-.33.02-.66.15-1.06.32-.83.9-1.7,1.34-2.54.54-.95.98-1.72,1.44-2.6.45-.86.87-1.73,1.23-2.62.56-1.38.86-2.83,1.16-4.24.06-.31.1-.63.17-.94.26-1.15.59-1.44,1.53-1.49.21-.01.43-.04.63-.03.67.03,1.17.67,1.13,1.64-.14,2.88-1.16,5.71-2.41,8.36-.46.99-.97,1.95-1.49,2.9-.37.68-.25.42-.3.49-.02.02-.05.04-.08.07l-.12.04Z"/><path class="cls-3" d="M369.15,48.71c-2.66-2.91-5.58-5.57-8.84-7.89-3.25-2.29-6.73-4.27-10.37-5.88-7.27-3.27-15.27-4.9-23.26-4.94l-2.19.02-2.18.15c-1.46.06-2.9.34-4.35.51-2.87.53-5.73,1.12-8.49,2.05-9.82,3.04-18.66,9.14-24.98,17.28-6.25,8.17-9.96,18.38-10.45,28.68-.05,4.58.53,9.18,1.76,13.61,1.35,4.4,3.26,8.6,5.63,12.51,3.12,4.99,7.11,9.4,11.54,13.29l.82.75.87.68,1.74,1.37c1.13.96,2.39,1.72,3.61,2.57,1.21.85,2.46,1.63,3.72,2.41l1.9,1.17,1.98,1.02c3.28,1.71,2.75,1.81-.36.98-.77-.22-1.74-.44-2.79-.82-1.07-.39-2.26-.84-3.57-1.32-2.55-1.13-5.42-2.76-8.26-4.92-5.04-3.82-9.45-8.5-13-13.79-3.55-5.28-6.26-11.2-7.68-17.47-1.43-6.26-1.59-12.83-.42-19.14.31-1.58.57-3.17,1.07-4.68.22-.77.43-1.53.67-2.29l.82-2.25c.5-1.52,1.23-2.95,1.86-4.41.32-.73.73-1.42,1.1-2.13.39-.7.72-1.43,1.16-2.09,1.92-3.31,4.28-6.39,6.89-9.25,1.29-1.45,2.73-2.76,4.16-4.09l2.26-1.86c.75-.62,1.57-1.15,2.36-1.74,3.21-2.24,6.65-4.14,10.25-5.68,3.6-1.53,7.37-2.64,11.18-3.4,16.78-3.38,34.82.89,48.42,11.11,8.45,6.21,15.13,14.91,18.61,24.83,5.4,15.01,3.14,32.47-5.75,45.55-6.82,10.22-17.28,17.58-29,20.95-1.27.44-2.58.68-3.88.99-.65.14-1.3.29-1.96.43-.66.09-1.33.18-2,.27-4.98.69-8.33.49-10.62.19-.58-.08-1.09-.15-1.55-.26-.46-.13-.86-.25-1.23-.39-.73-.27-1.29-.55-1.78-.88-.45-.29-1.04-.6-1.27-.87-.4-.45.41-.72,2.17-.84,1.73-.07,4.43-.18,7.89-.32,10.19-.5,20.45-3.9,28.86-10.06,4.2-3.08,7.89-6.87,10.87-11.18,2.97-4.32,5.2-9.15,6.57-14.28,2.01-7.59,2.27-15.7.38-23.37-.9-3.84-2.26-7.58-4.15-11.06-1.87-3.48-4.09-6.8-6.77-9.73l.06-.08Z"/><path class="cls-3" d="M325.5,64.16l9.26,1.64c1.13.2,2.27.29,3.39.49,3.97.7,7.95,1.42,11.93,2.07,1.77.3,3.55.54,5.31.75,1.13.15,2.27.24,3.4.43,1.13.22,2.25.43,3.35.79.66.41.56.46-.1.85-.65.38-1.82.79-3.15.8-4.66-.23-9.29-.74-13.91-1.69-2.76-.55-5.69-.76-8.54-1.15-3.13-.44-6.26-.9-9.39-1.42l-5.77-.96c-2.91-.47-5.83-1.02-8.73-1.44-2.25-.33-4.49-.47-6.74-.71-.49-.05-.98-.07-1.48-.15-.91-.18-1.5-.35-1.89-.62-.38-.33-.57-.65-.7-1.03-.06-.17-.15-.34-.18-.49-.04-.25.14-.43.52-.64.38-.2.96-.47,1.64-.42,4.06.02,8.21.71,12.4,1.33,3.11.5,6.23.99,9.35,1.49v.08Z"/><path class="cls-3" d="M323.02,81.2c2.21.45,4.42.89,6.64,1.29.81.15,1.63.19,2.44.34,2.86.5,5.7,1.2,8.57,1.7,1.27.23,2.56.37,3.83.57,1.63.25,3.28.35,4.85,1.01.49.19.4.37-.07.63-.23.13-.56.3-.96.47-.2.08-.41.18-.64.24-.22.04-.45.07-.69.07-1.69-.02-3.38.03-5.05-.16-1.67-.18-3.34-.41-5.01-.75-1-.2-2.02-.31-3.06-.42-1.03-.12-2.07-.22-3.1-.38-2.26-.34-4.51-.71-6.76-1.1l-4.16-.73c-2.1-.36-4.2-.79-6.29-1.11-1.62-.26-3.25-.31-4.88-.5-.36-.05-.71-.07-1.07-.14-1.32-.27-1.69-.59-1.8-1.45-.02-.2-.07-.4-.07-.59,0-.64.65-1.06,1.64-1.1.74-.02,1.48-.03,2.23-.02.74.04,1.48.11,2.22.19,1.49.16,2.99.38,4.49.62,2.22.41,4.46.82,6.68,1.22v.08Z"/><path class="cls-3" d="M320.01,95.8c1.11.26,2.24.5,3.38.69.41.07.84.05,1.25.13,1.46.33,2.94.65,4.43.88.33.05.66.09,1,.11l.99.13c.85.06,1.7.25,2.53.55.26.1.22.24-.02.46-.24.21-.67.58-1.17.74-.44.14-.88.22-1.32.29-.44.05-.88.17-1.31.14-.87-.04-1.74-.14-2.61-.32-1.04-.23-2.15-.1-3.23-.24-1.18-.15-2.37-.35-3.54-.56l-2.17-.43c-1.1-.21-2.18-.51-3.28-.7-.85-.15-1.72-.2-2.57-.35-.19-.03-.38-.04-.57-.1-.69-.2-.84-.47-.75-1.19.02-.16.03-.33.07-.49.12-.53.53-.89,1.05-.93.77-.03,1.53-.03,2.28.03.75.05,1.48.25,2.22.39,1.1.23,2.21.5,3.34.7v.07Z"/><path class="cls-3" d="M154.75,302.57c.51-.3,1.02-.61,1.51-.99.18-.13.32-.3.5-.45.62-.5,1.23-1.04,1.79-1.63.25-.26.51-.52.75-.79.31-.35.62-.7.99-.99.12-.09.18-.02.2.16.02.17.02.46-.1.7-.21.43-.43.86-.67,1.28-.25.41-.6.75-.95,1.09-.43.4-.78.9-1.19,1.34-.48.46-.97.93-1.52,1.3-.33.25-.69.46-1.03.68-.53.32-1.09.59-1.63.88-.41.24-.8.52-1.21.79-.09.05-.17.12-.27.16-.36.14-.52.06-.75-.34-.05-.09-.11-.18-.15-.27-.14-.32-.09-.64.11-.85.62-.59,1.34-.89,2.05-1.25.53-.26,1.06-.53,1.56-.84l.02.03Z"/><path class="cls-3" d="M163.63,307.24c2.02.21,4.1.28,6.12.05.19-.02.37-.05.55-.08.16-.03.43-.09.43-.09.09-.03.18-.05.29-.06l.33-.02.32-.06c.08-.03.32-.04.23-.13-.07-.12-.18-.25-.3-.42l-.5-.66c-.4-.5-.79-1.04-1.15-1.58-.71-1.12-1.37-2.3-1.84-3.55-.61-1.57-.96-3.41-.17-5.02.37-.48.15-.42.41.01.14.21.31.51.58.84.12.17.3.34.42.51.1.18.19.36.27.55.3.67.54,1.32.83,1.95.3.63.66,1.23,1.06,1.81.41.58.83,1.15,1.27,1.74.24.31.41.53.77.92.5.55,1.08,1.06,1.61,1.58.9.86,1.11,1.64,1.18,2.15.02.15,0,.24-.11.44h0c-.11-.03.14.04.12.04h0s0,0,0,0h0s0,.02,0,.02l-.02.03-.04.05-.08.11-.15.21c-.07.15-.27.27-.44.39-.19.12-.32.27-.55.36-.86.42-1.85.82-2.93,1.03l-.67.15-.46.07c-.29.05-.58.09-.87.12-.58.07-1.16.12-1.73.16-1.15.07-2.3.07-3.44.02-1.41-.06-2.81-.21-4.2-.43-2.11-.33-4.18-.92-6.2-1.71-1.55-.64-3.19-1.27-4.6-2.58-.31-.28-.6-.59-.85-.94-.89-1.37-.7-2.07.12-2.58.19-.12.37-.26.57-.34.34-.14.69-.12,1.01-.02.31.11.6.3.86.54.39.37.8.67,1.24.97.42.31.89.59,1.4.85,1.01.53,2.17,1.01,3.43,1.37,1.85.56,3.86.94,5.9,1.1v.09Z"/><path class="cls-3" d="M70.35,254.75c.45-4.26,1.37-8.48,2.83-12.52.7-2.03,1.6-3.99,2.54-5.92,1.01-1.9,2.07-3.78,3.33-5.53,2.42-3.57,5.51-6.69,8.73-9.41,3.25-2.74,6.76-5.16,10.47-7.21,5.43-2.98,11.22-5.32,17.26-6.66,10.63-2.39,21.91-2.13,32.31,1.19,5.19,1.67,10.16,4.03,14.65,7.1,2.27,1.51,4.38,3.21,6.4,5.06,2.02,1.9,3.78,4.04,5.3,6.32,5.35,8.14,7.97,17.79,8.34,27.3.22,6.11-.51,12.35-2.59,18.17-2.04,5.81-5.42,11.25-10.04,15.29-1.55,1.14-2.27,1.54-2.31,1.41-.05-.14.54-.88,1.44-2.19.83-1.38,2.14-3.16,3.34-5.51,1.22-2.33,2.47-5.1,3.6-8.17,1.01-2.73,1.67-5.57,2.16-8.43.49-2.87.71-5.79.69-8.71-.04-5.84-1.06-11.69-2.99-17.18-1.9-5.49-4.74-10.7-8.72-14.79-.52-.49-1-.99-1.55-1.47l-1.68-1.43c-1.16-.9-2.31-1.83-3.54-2.64-2.44-1.66-5-3.17-7.7-4.4-6.44-3-13.69-4.63-21.02-4.83-7.34-.22-14.75,1-21.69,3.36-7.63,2.61-14.78,6.68-20.85,12.02-3.06,2.67-5.69,5.65-7.9,9.02-2.16,3.38-3.92,7.03-5.15,10.88-3.05,9.45-3.28,19.85-.6,29.45,2.05,7.25,5.79,14.1,11.16,19.41,5.32,5.36,12.18,9.05,19.39,11.18,5.62,1.63,11.45,2.37,17.23,2.29,5.79-.05,11.54-.87,17.11-2.38,2.46-.65,4.81-1.47,7.19-2.39,4.41-1.73,7.16-3.21,9.13-4.17,1-.47,1.77-.85,2.46-1.12.69-.26,1.27-.43,1.82-.55.5-.1,1.14-.29,1.49-.28.59.02.18.72-1.14,1.97-1.34,1.21-3.62,2.94-6.86,4.64-9.59,5.04-20.73,7.63-32.05,7.6-5.66-.02-11.39-.78-16.95-2.34-5.54-1.61-10.95-4.01-15.72-7.45-3.57-2.5-6.74-5.61-9.43-9.06-2.7-3.45-4.81-7.32-6.46-11.35-3.23-8.1-4.38-16.94-3.52-25.56h.09Z"/><path class="cls-3" d="M117.39,244.19c2.93-.16,5.87-.35,8.81-.6,1.07-.09,2.13-.26,3.21-.35,3.78-.32,7.59-.53,11.39-.77,1.69-.14,3.38-.28,5.05-.42,2.15-.12,4.31-.43,6.49-.02.68.1.59.19.04.48-.35.19-.74.4-1.13.61-.24.12-.49.28-.76.37-.27.08-.56.15-.87.2-4.31.79-8.62,1.32-13.04,1.61-2.64.19-5.36.61-8.05.92-2.96.31-5.93.59-8.91.83l-5.5.4c-2.78.15-5.58.29-8.35.44-1.08.05-2.14.15-3.2.27l-3.2.26c-.47.04-.93.09-1.41.09-1.77.03-2.32-.3-2.66-1.16-.08-.2-.18-.4-.22-.59-.13-.66.6-1.2,1.86-1.41,3.74-.47,7.64-.57,11.6-.77,2.93-.13,5.89-.27,8.84-.48v.08Z"/><path class="cls-3" d="M115.38,261.73c1.63-.07,3.26-.12,4.9-.22.6-.03,1.18-.15,1.78-.19,2.1-.13,4.22-.26,6.33-.43.94-.08,1.87-.23,2.78-.38,1.18-.18,2.38-.31,3.59-.33.38,0,.36.18.09.46-.27.27-.78.72-1.43.97-.58.21-1.16.44-1.75.63-.59.15-1.19.29-1.79.42-1.2.26-2.42.47-3.65.58-1.48.1-2.99.46-4.49.66-1.66.2-3.31.4-4.98.51l-3.08.21c-1.55.1-3.11.15-4.65.29-1.19.11-2.36.39-3.54.55-.26.04-.52.09-.78.11-.98.06-1.3-.14-1.52-.91-.05-.18-.12-.35-.15-.52-.1-.59.28-1.1.98-1.31,2.07-.66,4.24-.76,6.44-.91,1.63-.09,3.27-.18,4.91-.27v.07Z"/><path class="cls-3" d="M123.31,273.09l6.46-.59c.79-.08,1.56-.25,2.35-.32,2.79-.25,5.58-.5,8.37-.75,1.24-.08,2.48-.24,3.7-.39,1.57-.21,3.17-.28,4.76-.2.5.03.46.27.08.61-.38.33-1.09.86-1.97,1.12-1.55.51-3.13.79-4.71,1.08-.79.13-1.58.29-2.38.37-.8.08-1.61.13-2.42.18-1.94.11-3.92.57-5.89.86-2.17.31-4.34.6-6.53.83l-4.04.41c-2.04.21-4.1.32-6.13.54-1.58.15-3.12.46-4.69.64-.35.05-.69.09-1.04.09-.65,0-1.08-.07-1.38-.25-.3-.17-.47-.41-.61-.76-.06-.16-.14-.31-.18-.47-.12-.5.41-.98,1.33-1.31.68-.15,1.37-.36,2.06-.46.69-.11,1.39-.18,2.1-.27,1.41-.16,2.84-.29,4.28-.42,2.14-.2,4.3-.37,6.45-.62v.07Z"/><path class="cls-3" d="M310.52,458.7c.28.22.58.44.88.63.11.07.24.1.35.17.4.24.79.52,1.2.76.18.1.38.17.57.23.25.07.5.12.73.28.07.05.04.21-.06.37-.1.16-.27.35-.44.36-.59.03-1.16,0-1.68-.24-.3-.16-.65-.2-.98-.31-.35-.13-.7-.29-1.04-.45-.21-.1-.42-.21-.63-.31-.32-.15-.62-.36-.95-.5-.25-.11-.58-.1-.85-.22-.06-.02-.13-.03-.19-.07-.21-.15-.2-.31.06-.71l.18-.27c.22-.3.48-.49.65-.53.55-.14.91.03,1.32.23.3.13.59.34.88.54l-.02.04Z"/><path class="cls-3" d="M303.19,469.38c-.1.02-.57.26-.26.37.07.07.14.15.3.22.58.24,1.22.33,1.83.52,2.17.61,4.49.97,6.83.92,1.04-.03,2.08-.18,3.07-.43,1.29-.29,2.55-.64,3.94-.74.44-.03.5.25.32.75-.2.47-.61,1.37-1.36,1.81-.68.32-1.37.65-2.09.86-.73.19-1.47.31-2.21.41-1.49.19-3,.19-4.5,0-1.78-.23-3.64-.32-5.44-.8-.26-.07-.52-.14-.78-.22l-.9-.31c-.79-.26-1.48-.65-2.21-.96-.23-.18-.37-.37-.56-.55-.15-.19-.41-.34-.48-.57-.12-.26.03-.48.09-.71.1-.23.22-.48.41-.73.49-.67,1.25-1.34,1.82-1.93.41-.41.81-.81,1.19-1.24,1.15-1.29,2.25-2.63,3.05-4.13.62-1.16.97-2.42,1.22-3.64l.13-.81c.22-.99.5-1.25,1.33-1.36.19-.02.38-.07.57-.07.62-.03,1.08.52,1.12,1.45,0,2.75-1.25,5.42-2.79,7.68-.58.85-1.21,1.64-1.87,2.4l-1,1.12c-.3.33-.81.88-.69.74l-.07-.04Z"/><path class="cls-3" d="M407.47,418.08c-1.68-7.64-5.41-14.93-10.34-21.07-2.57-2.99-5.42-5.75-8.63-8.08-.78-.61-1.65-1.1-2.47-1.66l-1.25-.81c-.42-.26-.87-.48-1.3-.72-.88-.47-1.74-.95-2.63-1.41l-2.73-1.21c-5.36-2.25-11.11-3.54-16.91-4.1-5.12-.48-10.31-.32-15.4.47-5.1.79-10.08,2.19-14.74,4.36-9.36,4.3-17.37,11.51-22.88,20.25-4.97,7.73-7.57,16.97-7.53,26.04.09,5.74,1.98,11.44,4.41,16.72,1.22,2.66,2.67,5.21,4.33,7.6,1.7,2.35,3.36,4.76,5.48,6.78,1.34,1.23,1.98,1.72,1.86,1.82-.1.06-.96-.25-2.41-1-1.44-.75-3.49-1.96-5.64-3.86-2.11-1.93-4.14-4.61-5.88-7.76-1.54-2.79-2.8-5.74-3.76-8.8-.97-3.06-1.67-6.22-1.9-9.52-.28-6.52.71-12.9,2.84-18.96,4.23-12.11,12.88-22.44,23.75-29.06.82-.48,1.64-.97,2.46-1.46.84-.45,1.71-.86,2.57-1.29,1.69-.91,3.52-1.54,5.31-2.29.89-.37,1.84-.6,2.76-.91.93-.27,1.85-.62,2.8-.81,1.89-.43,3.77-.92,5.69-1.17,3.82-.69,7.73-.87,11.62-.88,1.94.12,3.89.09,5.82.38l2.89.35,2.86.55c.52.11,1.05.19,1.57.31l1.54.41c1.02.29,2.07.52,3.08.86l3.02,1.06c1.02.32,1.97.83,2.95,1.23,1.99.79,3.82,1.9,5.71,2.89,1.78,1.18,3.64,2.24,5.29,3.62l1.27.98c.43.32.84.66,1.23,1.03l2.35,2.18c.78.73,1.45,1.57,2.18,2.35l1.07,1.19c.35.4.65.85.98,1.27l1.92,2.56,1.73,2.68,1.59,2.77c.49.94.96,1.9,1.43,2.85,2.21,4.75,3.72,9.84,4.41,15.05.62,5.21.46,10.51-.51,15.65-1.44,7.76-4.5,15.29-9.2,21.69-4.69,6.4-10.96,11.55-17.93,15.11-10.86,5.52-23.18,7.55-35.17,5.89-2.63-.42-5.22-.84-7.8-1.62-4.81-1.38-7.77-2.91-9.77-4.06-.97-.63-1.71-1.17-2.29-1.67-.57-.51-.95-1.02-1.28-1.5-.29-.44-.71-.95-.82-1.27-.2-.54.62-.4,2.24.27,1.62.65,4.05,1.82,7.27,3.06,9.51,3.76,20.32,4.74,30.7,2.89,10.39-1.81,20.35-6.8,27.68-14.42,2.71-2.84,5.08-5.99,7.02-9.41,1.94-3.42,3.43-7.09,4.53-10.92,2.22-7.63,2.64-15.74.88-23.45l.09-.04Z"/><path class="cls-3" d="M372.47,419.03c-1.6-.46-3.19-.92-4.79-1.35-.58-.16-1.18-.23-1.77-.39-2.05-.58-4.1-1.19-6.15-1.73-.91-.26-1.84-.45-2.76-.62-1.18-.22-2.39-.35-3.49-.96-.32-.28-.24-.45.16-.82.39-.34,1.08-.81,1.78-.8,2.45.23,4.89.5,7.25,1.33,1.41.46,2.95.6,4.43.91l4.87,1.08,3,.67c1.51.33,3.03.71,4.55.94,1.18.18,2.38.15,3.57.2.26.01.52,0,.79.02.97.11,1.23.4,1.27,1.37,0,.22.03.44.02.66-.04.74-.54,1.26-1.27,1.33-2.19.21-4.39-.16-6.59-.6-1.63-.33-3.26-.73-4.88-1.14v-.08Z"/><path class="cls-3" d="M362.93,431.59l-9.38-1.88c-1.14-.22-2.3-.36-3.44-.6-4.02-.85-8.04-1.71-12.04-2.71-1.78-.41-3.56-.83-5.33-1.2-1.13-.26-2.27-.51-3.39-.83-.56-.16-1.12-.34-1.67-.53l-.83-.29c-.27-.11-.53-.28-.79-.43-.63-.46-.54-.39.14-.58.7-.27,1.92-.49,3.22-.27,1.17.17,2.33.32,3.48.58l3.46.67c2.31.46,4.62.9,6.93,1.47,2.76.68,5.71.99,8.58,1.46l9.49,1.56,5.84.99c2.95.5,5.91,1.07,8.85,1.51,2.29.35,4.56.51,6.84.79.5.06,1,.09,1.5.18,1.86.32,2.36.89,2.6,1.72.05.19.14.38.15.56.03.29-.17.51-.55.7-.39.19-.97.37-1.66.37-4.1-.14-8.29-.87-12.54-1.53-3.15-.54-6.31-1.08-9.47-1.63v-.08Z"/><path class="cls-3" d="M356.5,448.92c-1.31-.34-2.62-.68-3.94-.99-.48-.11-.97-.15-1.45-.27-1.69-.43-3.38-.87-5.06-1.3-.75-.18-1.51-.3-2.26-.45-.48-.09-.97-.16-1.45-.27-.48-.09-.95-.26-1.39-.59-.26-.27-.21-.31.1-.6.16-.15.38-.33.63-.49.13-.08.26-.17.4-.22.14-.04.28-.06.42-.05,1,.05,2,.08,2.98.23.98.18,1.95.39,2.92.68,1.16.35,2.42.38,3.63.57l4,.68,2.47.43c1.24.22,2.49.49,3.74.62.97.11,1.95.01,2.92.04.21.02.42.02.63.06.77.19.98.53,1.04,1.2.01.16.04.31.04.46,0,.49-.39.88-1.01,1.11-.46.17-.91.23-1.37.31-.45.02-.89.01-1.34-.01-.89-.05-1.79-.17-2.69-.3-1.33-.2-2.66-.46-3.99-.76v-.07Z"/><path class="cls-3" d="M443.75,187.8l-13.35-.23c-1.62-.02-3.25.05-4.87.02l-17.17-.34c-2.54-.04-5.09,0-7.61.03-1.62.03-3.24.01-4.86-.01-.81-.03-1.62-.01-2.43-.11-.81-.12-1.62-.2-2.43-.37-1.01-.38-.87-.18-.02-.53.43-.19,1.03-.39,1.76-.67.37-.12.76-.29,1.18-.39.42-.08.87-.15,1.33-.18,1.65-.12,3.3-.27,4.95-.36,1.65-.03,3.3-.05,4.96-.08,3.31-.03,6.63,0,9.96.11,3.99.17,8.13,0,12.21,0l13.46.1c2.76.03,5.52.05,8.28.08,4.18.03,8.38.1,12.53.08,3.23-.02,6.39-.22,9.6-.28.71-.01,1.4-.06,2.11-.05,1.34.04,2.22.13,2.83.32.66.24,1.04.59,1.23,1.03.09.2.21.4.23.59.03.31-.27.55-.72.75-.23.09-.5.17-.8.23-.36.09-.79.12-1.26.14-5.6.28-11.63.35-17.64.31-4.48-.04-8.97-.08-13.46-.11v-.08Z"/><path class="cls-3" d="M214.03,189.01h-42.93c-5.22.02-10.44.04-15.66.05-18.4-.1-36.79-.33-55.18-.66-8.16-.13-16.37-.2-24.46-.26-5.2-.05-10.41-.15-15.63-.26-2.61-.08-5.21-.11-7.81-.27-2.6-.18-5.2-.31-7.8-.54-3.23-.47-2.8-.24-.05-.58,1.37-.19,3.33-.37,5.69-.64,1.18-.12,2.46-.28,3.82-.37,1.36-.07,2.8-.11,4.3-.12l15.93-.14c5.31.04,10.62.08,15.94.12,10.64.09,21.29.23,32,.41,12.8.28,26.13.11,39.23.11,14.4-.03,28.81-.06,43.22-.09,8.87-.06,17.74-.12,26.6-.19,13.43-.14,26.92-.26,40.24-.55,10.36-.23,20.51-.66,30.75-1.03,2.25-.09,4.46-.17,6.73-.26,4.21-.12,6.99-.14,8.95,0,1.95.15,3.08.43,4,.86.42.2.96.39,1.21.59.41.33-.24.66-1.76.96-1.52.3-3.92.6-7.01.75-18.3.99-37.61,1.43-57,1.72-14.4.23-28.87.33-43.31.45l-.02-.08Z"/><path class="cls-3" d="M367.19,347.69l-38.09-.63c-4.63-.05-9.26-.09-13.89-.14l-48.96-1.04c-7.24-.1-14.52-.21-21.71-.31-4.62-.06-9.24-.04-13.87-.18-4.62-.11-9.25-.2-13.86-.6-2.88-.45-2.49-.16-.05-.5,1.22-.19,2.95-.38,5.04-.67,2.09-.24,4.54-.42,7.2-.52,4.72-.2,9.43-.27,14.15-.33,4.72-.05,9.43-.09,14.16-.14,9.45.02,18.91.24,28.41.49,11.37.32,23.2.23,34.83.4,12.78.18,25.57.36,38.36.54,7.87.09,15.74.18,23.61.26,11.92.09,23.89.21,35.72.13,9.2-.07,18.21-.36,27.29-.6,2-.06,3.96-.12,5.98-.17,7.48-.14,9.86.08,11.48,1.06.37.22.85.43,1.07.65.73.72-2.32,1.43-7.8,1.69-16.25.81-33.4.97-50.62.95-12.78,0-25.63-.14-38.44-.26l-.02-.09Z"/><path class="cls-3" d="M80.72,345.57c-2.62-.06-5.25-.08-7.88-.07-.96,0-1.92.1-2.88.1-3.39-.02-6.78-.05-10.17-.07-1.51.02-3.02.04-4.51.05-.96.01-1.92.07-2.89,0-.96-.04-1.93-.1-2.89-.39-.6-.35-.52-.11-.02-.41.25-.16.61-.33,1.03-.58.43-.21.93-.37,1.48-.48.97-.21,1.94-.32,2.91-.42.97-.11,1.94-.22,2.92-.3,1.95-.12,3.92-.09,5.89-.04,2.36.08,4.81-.19,7.23-.23,2.66-.05,5.32-.06,7.98-.06l4.92.04c2.48.02,4.98.12,7.45.16.96,0,1.92-.01,2.87-.02.95-.03,1.91-.04,2.87-.01.42,0,.84-.01,1.27.01,1.59.16,2.07.43,2.27,1.28.05.19.12.38.13.56.05.61-.66,1.07-1.77,1.09-3.31.11-6.79.02-10.31-.05-2.62-.04-5.26-.11-7.9-.09v-.07Z"/><path class="cls-3" d="M395.88,65.72c-.22-.04-.3-.29-.29-.62,0-.11.14-.34.22-.36.14-.02.29-.04.43-.05.08.01,1.22.27,1.63.28.39.04.75.11,1.11.19l2.18.47c.16.03.31.09.46.17.5.27,1.06.39,1.62.42.09,0,.19.03.29-.05.18-.11,1.67,0,1.86.07.46.22.93.36,1.41.53.07.03.15-.02.2.11.13.3.29.25.44.27.21.04.42.08.63.18.1.05.21.23.31.37.1.13.04.61,0,.66-.1.15-.02.37-.01.57,0,.07,0,.15,0,.21,0,.14-1.36.84-1.52.8-.02,0-.52,0-1.05-.01-.52-.02-1.07-.05-1.2-.05-.12,0-.23-.09-.34-.15-.05,0-1.64-.18-1.7-.22-.31-.11-.65-.13-.91-.44-.05-.06-.12-.07-.18-.08-.54-.14-1.05-.41-1.56-.66-.26-.12-.53-.21-.79-.32-.05-.02-.08-.07-.13-.1-.05-.04-.1-.09-.16-.12-.61-.29-1.16-.69-1.77-.98-.14-.07-.69-.61-.85-.68-.09-.04-.26-.41-.35-.43Z"/><path class="cls-3" d="M397.43,60.21c-.04.22-.32.2-.72.07-.13-.04-.43-.28-.44-.36-.02-.16-.04-.31-.04-.45,0-.08.46-1.14.6-1.52.13-.37.33-.69.54-.99.44-.61.84-1.27,1.34-1.84.11-.12.24-.23.4-.31.53-.28.94-.67,1.32-1.11.06-.07.15-.13.15-.27,0-.23,1.15-1.3,1.36-1.36.51-.17.97-.4,1.46-.58.07-.03.1-.11.23-.04.29.14.39.01.52-.06.18-.12.41-.16.65-.19.12-.01.3.07.46.12.14.05.33.4.33.46,0,.16.17.27.27.41.03.05.08.1.1.14.02.04-.08.41-.18.79-.11.36-.27.68-.32.72-.01,0-.32.3-.64.61-.32.31-.64.64-.7.72-.06.08-.18.09-.28.12-.06,0-.93,1.02-.97,1.05-.23.15-.37.4-.74.41-.07,0-.11.05-.14.09-.33.34-.74.6-1.13.88-.21.13-.37.31-.56.47-.03.03-.09.03-.14.05-.06.02-.12.04-.16.08-.42.4-.93.72-1.28,1.18-.09.1-.7.42-.79.55-.05.07-.47.1-.48.19Z"/><path class="cls-3" d="M186.19,228.27c-.22.11-.43-.05-.64-.33-.07-.09-.09-.39-.03-.44.12-.1.24-.2.37-.28.08,0,1.32-.52,1.73-.77.4-.2.82-.28,1.23-.38l2.53-.57c.19-.04.38-.06.57-.04.66.05,1.31-.06,1.95-.25.11-.03.22-.03.31-.16.15-.21,1.9-.54,2.14-.48.59.11,1.17.15,1.75.23.08.01.16-.05.25.08.2.28.37.21.55.21.25-.01.5.03.75.11.13.04.26.21.4.34.12.12.11.58.08.64-.09.16.02.36.05.55.01.06.02.15.02.2,0,.06-.33.34-.67.62-.35.27-.72.49-.79.49-.02,0-.53.11-1.07.21-.54.11-1.1.22-1.22.26-.12.04-.25-.02-.38-.05-.06,0-1.68.32-1.75.3-.34-.02-.68.09-1.04-.13-.07-.04-.14-.03-.21-.02-.58.06-1.18,0-1.77-.03-.3-.01-.6.03-.9.04-.05,0-.11-.03-.17-.04-.07-.01-.14-.04-.21-.03-.71.05-1.43,0-2.13.1-.16,0-.97-.23-1.16-.21-.11,0-.48-.22-.56-.16Z"/><path class="cls-3" d="M185.72,217.74c.12.24-.26.34-.92.33-.21,0-.82-.16-.89-.23-.15-.15-.29-.29-.39-.42-.05-.07-.21-1.2-.32-1.58-.1-.38-.09-.74-.06-1.09.06-.73.04-1.47.12-2.2.02-.16.08-.32.17-.47.32-.52.41-1.08.42-1.65,0-.1.04-.19-.07-.3-.18-.18.03-1.72.16-1.9.29-.46.58-.92.89-1.38.04-.07.02-.15.17-.19.36-.09.35-.25.41-.4.09-.21.19-.41.35-.6.08-.09.28-.16.45-.23.15-.06.59.1.63.14.12.13.36.1.55.14.06.01.15.03.2.05.09.04.73,1.36.73,1.48,0,0,0,.12.01.3.01.17.03.4.04.64.03.47,0,.96.03,1.06.02.11-.08.2-.15.29-.03.04.02,1.47,0,1.53-.09.28,0,.59-.35.83-.07.05-.06.11-.06.17-.03.51-.22.99-.39,1.48-.09.25-.11.51-.17.76-.01.05-.06.08-.09.13-.04.05-.09.11-.1.16-.1.61-.39,1.19-.42,1.82-.01.15-.48.76-.48.93,0,.1-.51.3-.46.4Z"/><path class="cls-3" d="M424.75,409.16c-.22.09-.36-.21-.46-.67-.03-.15.02-.57.08-.63.13-.12.26-.24.39-.33.04-.03.36-.11.73-.21.37-.1.79-.23.99-.25.41-.09.8-.08,1.19-.05.8.06,1.6.11,2.4.2.18.02.35.07.51.16.56.3,1.15.41,1.77.46.1,0,.2.05.33-.05.21-.17,1.85.15,2.03.3.45.35.93.61,1.37.96.06.05.15.04.17.21.04.39.2.39.35.48.2.11.39.25.56.44.08.09.12.32.17.5.04.17-.19.63-.24.67-.15.12-.16.37-.22.58-.02.07-.05.16-.08.21-.06.1-1.53.59-1.65.57-.05.05-1.78-.36-1.99-.36-.11,0-.18-.12-.27-.2-.04-.04-1.45-.24-1.5-.27-.27-.13-.58-.11-.79-.46-.04-.07-.1-.07-.16-.09-.49-.1-.96-.35-1.44-.54-.24-.1-.5-.13-.75-.2-.05-.01-.08-.06-.13-.09-.05-.03-.11-.08-.16-.09-.6-.12-1.19-.38-1.81-.4-.14.01-.77-.45-.94-.46-.09-.02-.35-.43-.44-.39Z"/><path class="cls-3" d="M424.94,403.46c.02.22-.29.15-.81-.09-.16-.08-.59-.4-.62-.49-.07-.16-.13-.32-.16-.46-.02-.08.28-.97.35-1.29.07-.31.22-.57.38-.81l.94-1.52c.07-.11.17-.2.29-.28.41-.26.67-.62.88-1.03.03-.07.09-.12.05-.25-.07-.2.6-1.23.76-1.31.39-.2.74-.43,1.1-.65.05-.03.05-.11.19-.07.32.09.35-.04.44-.12.13-.12.27-.22.45-.3.09-.04.28,0,.44.03.15.02.5.33.52.39.07.15.29.23.44.35.05.04.12.09.16.12.09.08.14,1.33.07,1.41-.01.02-.66,1.26-.75,1.44-.03.08-.14.1-.23.14-.04.02-.57,1.04-.61,1.07-.18.16-.24.4-.6.43-.07,0-.09.05-.11.09-.23.33-.56.59-.87.86-.16.14-.26.32-.4.48-.02.03-.08.04-.11.05-.05.02-.1.04-.13.08-.29.39-.7.69-.93,1.13-.05.1-.61.35-.66.48-.03.07-.48.03-.47.11Z"/><path class="cls-3" d="M262.73,327.77c-.76-1.14-1.95-1.74-3.28-1.92s-2.59.14-3.91.19c-.72.03-1.41.61-1.38,1.38.03.72.61,1.4,1.38,1.38,1.14-.04,2.27-.32,3.42-.25.04,0,.09,0,.13.01.15.02.12.01-.1-.02.06.05.26.05.35.07.11.03.23.06.34.09.06.02.11.04.16.06-.18-.08-.22-.1-.13-.05.09.05.18.09.27.14.05.03.1.06.15.09.12.08.1.06-.07-.07.01.06.2.18.25.23.04.04.08.08.11.13-.13-.17-.15-.19-.06-.07.4.6,1.23.91,1.88.49.6-.38.92-1.24.49-1.88h0Z"/><path class="cls-2" d="M354.44,228.26c-1.22.72-6.06,2.59-6.79,6.22s.79,6.53,2.47,7.34,5.19,2.02,6.96,1.6,5.91-6.64,5.88-8.22-1.55-5.49-2.68-6.02c-1.13-.52-5.84-.92-5.84-.92Z"/><path class="cls-2" d="M364.79,240.92s2.26-6.21,6.78-6.44c4.52-.23,7.17.93,7.53,2.92s.67,7.17-1.49,9.14-5.01,4.27-7.36,3.62-6.78-3.35-6.59-5.81,1.13-3.42,1.13-3.42Z"/><path class="cls-3" d="M321.62,297.29s-.35-.09-.18-.03-.11-.07-.15-.08c-.29-.14.08.09-.04-.03-.07-.07-.14-.14-.2-.21.19.21-.04-.07-.07-.11-.04-.07-.08-.14-.12-.21-.17-.31.05.22-.05-.13-.02-.08-.05-.16-.07-.24-.03-.12-.05-.24-.08-.36.03.12.01.14,0,0-.02-.29-.03-.57-.02-.86.02-.61.09-1.21.12-1.82.09-2.04-.74-4.52-2.99-5.02-.7-.16-1.52.21-1.69.96-.16.7.21,1.52.96,1.69,0,0,.35.1.18.03s.11.07.15.08c.29.15-.08-.09.04.03.07.07.14.14.2.21-.18-.21.04.07.06.11.04.07.08.14.12.22.17.31-.05-.22.05.13.02.08.05.16.07.24.03.12.05.24.08.36-.03-.13-.01-.14,0,0,.02.29.02.57.02.86-.02.61-.09,1.21-.12,1.82-.08,2.04.75,4.53,3,5.01.7.15,1.52-.21,1.69-.96.16-.69-.21-1.53-.96-1.69h0Z"/><path class="cls-3" d="M379.92,244.14l4.74,1.22c1.55.4,3.13.92,4.75.99.72.03,1.41-.65,1.38-1.38-.03-.77-.6-1.34-1.38-1.38-1.3-.05-2.83-.58-4.19-.93l-4.56-1.18c-.7-.18-1.52.23-1.69.96s.22,1.5.96,1.69h0Z"/><path class="cls-3" d="M365.97,246.53s.03,0,.05,0l-.43-.06c.09.01.18.04.27.08l-.39-.16c.09.04.16.09.24.14l-.33-.25c.09.07.16.15.23.23l-.25-.33c.08.1.14.21.19.33l-.16-.39c.05.13.09.26.11.39l-.06-.43c.01.12.02.24,0,.35l.06-.43c-.01.11-.04.21-.08.31l.16-.39c-.03.08-.08.15-.13.22l.25-.33c-.04.05-.08.1-.13.14-.16.15-.27.32-.34.52-.1.19-.15.4-.14.63,0,.22.04.43.14.63.07.2.18.38.34.52.31.28.72.5,1.15.48s.82-.17,1.15-.48c.04-.03.07-.07.1-.1.12-.14.23-.28.33-.43.03-.04.05-.08.07-.12.08-.17.16-.34.21-.52.07-.22.09-.47.11-.69,0-.1,0-.2,0-.3-.03-.23-.05-.48-.12-.7s-.16-.45-.27-.65-.26-.38-.4-.56c-.06-.08-.13-.14-.21-.21-.14-.12-.29-.24-.45-.34s-.34-.16-.51-.23c-.23-.09-.5-.11-.74-.13-.22,0-.43.04-.63.14-.2.07-.38.18-.52.34-.16.15-.27.32-.34.52-.1.19-.15.4-.14.63.02.42.16.86.48,1.15l.33.25c.25.15.53.22.82.22h0Z"/><path class="cls-3" d="M380.81,243.8c-.49,1.41-1.31,2.63-2.26,3.69-.96,1.05-2.08,1.96-3.37,2.56-.92.43-1.85.84-2.88,1.03-1.79.33-3.73.15-5.39-.69-1.67-.82-2.94-2.34-3.54-4.03-.54-1.51-.61-3.15-.3-4.66l.27-1.07c.04-.18.13-.34.19-.52.08-.19.05-.18.11-.27,0-.1.14-.23,0-.3-.1-.06-.2-.11-.31-.15l-.18-.08c-.12-.06-.24-.14-.37-.21-.24-.15-.5-.28-.75-.44-.49-.38-.42-.36.13-.53.28-.09.66-.19,1.15-.3.12-.04.24-.03.38-.05.2.01.43.03.68.07.52.05,1.08.26,1.37.61.37.44.37,1.11.2,1.69-.35.94-.46,1.01-.54,1.41-.07.34-.24.68-.25,1.03-.11.69-.14,1.38-.02,2.04.21,1.32.85,2.6,1.97,3.46.71.61,1.68.89,2.66.99.99.12,2-.15,2.99-.4,1.07-.4,2.11-.87,2.99-1.6.87-.73,1.62-1.62,2.15-2.63.65-1.24.99-2.65.85-3.99-.11-1.01-.44-2-1.07-2.8-.64-.79-1.48-1.43-2.45-1.85-.65-.34-1.43-.34-2.23-.27-.79.09-1.58.3-2.32.58-.33.12-.63.29-.93.43-1.11.57-1.48.61-2.21.2-.17-.1-.36-.17-.51-.27-.52-.32-.38-1.22.65-2.05,1.55-1.14,3.4-1.78,5.42-1.89.52-.02,1.03-.01,1.6.07.27.03.58.11.86.18.3.1.65.21.85.33.46.24.94.44,1.38.75.42.34.88.63,1.25,1.04,1.19,1.12,1.99,2.72,2.26,4.31.28,1.6.08,3.19-.41,4.61h-.06Z"/><path class="cls-3" d="M351.7,239.53s0-.03,0-.04l.06.43s0-.07,0-.11l-.06.43s.01-.06.02-.09l-.16.39s.04-.07.06-.1l-.25.33s.06-.07.1-.09l-.33.25s.1-.06.15-.08l-.39.16c.06-.03.13-.04.2-.05l-.43.06c.06,0,.13,0,.19,0l-.43-.06c.05,0,.11.02.16.04l-.39-.16s.08.04.11.07l-.33-.25s.09.08.12.13l-.25-.33c.04.06.08.12.1.18l-.16-.39c.04.09.06.18.07.28l-.06-.43c.02.13.01.27,0,.4l.06-.43c-.02.15-.06.29-.11.43-.07.22-.08.43-.03.65,0,.22.07.42.19.6.1.19.24.34.42.46.16.14.34.24.55.29l.43.06c.29,0,.57-.07.82-.22l.33-.25c.2-.2.34-.44.42-.72.04-.12.08-.24.1-.36.04-.25.09-.52.08-.78,0-.19-.04-.39-.07-.58,0-.06-.02-.12-.04-.18-.03-.09-.07-.18-.11-.27s-.07-.18-.11-.26c-.09-.17-.23-.32-.34-.46-.03-.04-.07-.07-.11-.11-.11-.1-.28-.25-.44-.32-.14-.06-.28-.13-.43-.18-.02,0-.04-.01-.06-.02-.18-.04-.37-.07-.56-.07s-.41.04-.55.06c-.04,0-.09.01-.13.03-.02,0-.05.02-.07.02-.14.06-.29.11-.43.18-.1.05-.19.13-.27.19-.09.07-.19.13-.26.22-.08.09-.19.24-.26.34,0,.01-.02.02-.02.03-.01.02-.02.04-.03.06-.18.38-.22.5-.25.92,0,.03,0,.05,0,.07,0,.08.03.2.03.24.01.08.02.17.04.26.05.21.15.4.29.55.11.18.27.32.46.42.19.12.39.18.6.19.22.05.43.04.65-.03l.39-.16c.24-.14.44-.34.58-.58l.16-.39c.08-.29.08-.58,0-.86h0Z"/><path class="cls-3" d="M223.13,268.49c.42.15.84.28,1.24.48.15.07.3.1.45.18.5.27,1,.55,1.47.84.21.14.43.25.64.37.28.15.55.3.78.52.07.07,0,.16-.12.23-.13.07-.33.15-.51.11-.61-.16-1.23-.23-1.75-.58-.32-.2-.71-.25-1.06-.36-.4-.11-.78-.26-1.18-.39-.24-.08-.49-.16-.74-.22-.38-.09-.76-.19-1.14-.22-.3-.02-.6.07-.89.08-.06,0-.13.02-.19.02-.24,0-.31-.1-.35-.45l-.03-.23c-.02-.26.09-.48.29-.56.58-.28,1.19-.25,1.78-.16.44.06.88.18,1.31.29v.03Z"/><path class="cls-3" d="M258.6,303.15c-.76.6-1.57,1.16-2.36,1.73-.29.21-.56.44-.85.64-1.06.68-2.14,1.32-3.25,1.9-.5.24-.98.52-1.47.77-.31.16-.62.33-.94.48-.33.13-.68.21-1.03.3-.22.05-.23-.04-.13-.25.11-.2.3-.57.59-.86,1.16-.8,2.21-1.7,3.48-2.31.74-.4,1.4-.99,2.07-1.52.75-.58,1.48-1.18,2.21-1.79.45-.38.9-.75,1.34-1.15.66-.6,1.34-1.19,1.95-1.83.48-.5.86-1.08,1.29-1.63.09-.12.17-.25.27-.37.38-.42.6-.45,1.07-.14.11.07.22.14.31.21.33.27.4.68.19,1.05-.64,1.09-1.54,2-2.49,2.89-.71.66-1.46,1.29-2.21,1.92l-.03-.03Z"/><path class="cls-3" d="M261.92,296.37s4.8-2.63,5.18-1.88c.71,1.43-2.84,3.93-2.84,3.93l-2.33-2.05Z"/><path class="cls-3" d="M249.59,304.97s-7.09,6.14-5.74,6.92,7.7-2.97,7.7-2.97l-1.96-3.95Z"/><path class="cls-3" d="M245.23,315.72c-.01.59.06,1.18.14,1.78.03.22.12.43.15.65.14.77.32,1.56.59,2.32.12.33.25.67.4.99.19.41.39.82.53,1.27.04.14-.06.18-.23.13-.17-.05-.42-.16-.6-.37-.3-.38-.59-.76-.84-1.18-.24-.42-.41-.87-.55-1.34-.17-.56-.45-1.1-.64-1.67-.21-.62-.35-1.28-.45-1.93-.05-.41-.1-.81-.11-1.23-.05-.62.02-1.25.04-1.88.04-.48-.01-.99.05-1.5,0-.11,0-.23.03-.34.1-.41.31-.47.79-.35.11.03.22.05.33.09.36.13.6.4.64.66.04.76-.11,1.42-.17,2.17-.04.55-.1,1.12-.06,1.7h-.04Z"/><path class="cls-3" d="M333.48,287.52c-.45-.26-1.46-1.56-3.42-2.13-2.26-.65-5.64-.45-8.66,1.43,0,0,7.72-5.3,11.29-2.96l.79,3.65Z"/><path class="cls-3" d="M339.02,273.52c-.34.34-.66.71-.98,1.07-.29.4-.61.77-.88,1.2-.19.31-.34.64-.54.95-.67,1.1-1.34,2.24-1.78,3.49-.2.55-.31,1.13-.45,1.69-.14.73-.23,1.46-.53,2.21-.09.23-.12.21-.24,0-.1-.15-.19-.31-.27-.43-.07-.11-.13-.21-.18-.3-.03-.05-.05-.11-.09-.17,0-.06-.02-.12-.03-.17-.03-.82-.11-1.67.08-2.48.07-.41.18-.8.32-1.19.13-.39.26-.78.45-1.15.43-.89.69-1.89,1.2-2.76.28-.48.56-.96.89-1.41l.48-.68.54-.64c.42-.54.95-1,1.43-1.48.8-.67,1.66-1.31,2.64-1.75.19-.09.36-.2.56-.29l.59-.23c.39-.19.82-.28,1.26-.34.19-.03.39-.1.58-.09.73.08.95.27.95.84,0,.13,0,.26,0,.39-.06.43-.39.74-.76.82-1.1.24-2.05.55-3.07,1.18l-.56.35-.54.43c-.38.26-.69.64-1.04.96l-.04-.03Z"/><path class="cls-3" d="M394.86,262.11c.51.05,3.91,3.95,17.58,1.75,8.31-1.34,17.57-12.78,19.17-16.48s3.3-15.39,2.74-18.4-4.49-16.23-8.28-18.83c-3.79-2.6-19.21-7.64-22.78-7.67-3.58-.04-11.11,1.35-12.05,0s-9.41-10.37-13.93-12.84c-4.52-2.48-17.57-7.02-22.78-5.66s-14.96,5.11-19.9,9.62-8.44,14.63-9.04,18.16-1.27,13.26-.56,16.65c.71,3.4,3.31,11.93,13.4,15,0,0-3.94-5.42-3.94-7.84s.95-8.4,3.44-8.99c2.5-.59,6.13,1.95,6.13,1.95l7.2-12.61s12.57,3.34,18.07,3.75c5.51.41,16.8-.05,20.68,2.45,3.88,2.5,5.21,4.22,4.8,6.69s-3.82,10.7-4.63,12.45-3.74,6.76-1.32,7.23c2.42.47,5.59-2.14,5.59-2.14,0,0,4.34-4.99,7.34-4.15s3.94,3.92,3.95,5.65c.09,12.84-10.87,14.26-10.87,14.26Z"/><path class="cls-3" d="M240.95,271.49c-.04-.1-.67-.54-1.09-.84-.47-.31-.93-.63-1.42-.92-.95-.61-1.96-1.14-2.97-1.68-2.04-1.03-4.17-1.95-6.35-2.73-1.59-.57-3.23-1-4.86-1.44-2.86-.77-5.81-1.4-8.7-1.53-.72-.04-1.42.04-2.07.14l-.29.04c-.07.02-.15.03-.23.06-.14.05-.3.12-.4.25-.21.27-.05.65.18.87.05.06.12.12.2.17.1.06.1.09.28.18.29.16.58.32.91.45,2.33.97,5.04,1.33,7.68,1.74l.65.11c.18.03.55.12.77.2.49.18.91.39,1.31.62.81.46,1.55.98,2.25,1.55.71.57,1.36,1.2,1.91,1.94.55.73,1.08,1.51,1.37,2.43.14.59.07.87-.03.88-.13.01-.31-.23-.68-.54-.36-.31-.87-.7-1.48-1.11-.31-.21-.65-.42-1.01-.65-.18-.11-.36-.23-.56-.34-.18-.13-.35-.27-.54-.4-.64-.49-1.32-.94-2.01-1.33-.34-.19-.69-.36-1.01-.49-.17-.08-.3-.1-.44-.15l-.42-.06c-1.68-.23-3.49-.49-5.28-.88-.9-.21-1.81-.43-2.73-.76-.46-.15-.93-.36-1.4-.57l-.71-.38-.97-.72c-.28-.28-.51-.6-.77-.89-.15-.34-.32-.67-.42-1.02-.17-.7-.16-1.47.25-2.09.36-.62.97-1.07,1.69-1.34.37-.12.72-.27,1.12-.33.38-.08.56-.08.84-.09,2.4-.01,4.58.15,6.81.5,2.21.34,4.4.8,6.53,1.41,4.68,1.34,9.22,3.18,13.44,5.72.64.4,1.28.81,1.9,1.25.26.16.75.58,1.01.88.28.32.54.64.75.95.9,1.27,1.64,2.55,2.39,3.82,2.25,3.86,4.39,7.76,6.89,11.36.98,1.38,2,2.73,3.1,3.95,1.11,1.23,2.3,2.38,3.52,3.55.53.51,1.09,1,1.62,1.54.99,1,1.62,1.75,1.93,2.4.3.66.32,1.18.14,1.65-.09.23-.16.47-.29.6-.22.22-.54.13-.96-.09-.41-.23-1.03-.65-1.74-1.32-2.17-1.97-4.59-4.06-6.75-6.58-2.14-2.55-3.94-5.26-5.67-8.03-1.27-2.05-2.48-4.14-3.67-6.21-.6-1.03-1.19-2.06-1.8-3.04-.59-.97-1.26-1.99-1.8-2.61l.05-.05Z"/><path class="cls-3" d="M215.55,281.45c.41,1.08.9,2.16,1.46,3.14.28.49.59.96.92,1.39.16.21.33.41.51.59.09.1.17.17.26.25.09.09.18.15.18.15.18.15.41.15.62.05.24-.09.12-.34.08-.56l-.04-.11-.11-.26-.23-.53-.49-1.09c-.33-.74-.66-1.49-.95-2.29-.27-.81-.57-1.65-.49-2.75.02-.25.09-.5.17-.73.08-.2.15-.39.24-.56.16-.36.35-.68.53-1.01.37-.65.77-1.27,1.21-1.87.55-.77,1.17-1.52,1.94-2.13.75-.62,1.62-1.18,2.64-1.29.69.08.57.15.32.75-.12.3-.29.66-.47,1.05-.19.39-.42.73-.73,1.06-1.05,1.19-2.12,2.51-2.9,3.96-.18.33-.4.76-.47.9-.06.06-.08.33-.04.66.08.68.36,1.53.66,2.36.19.5.41,1.01.66,1.52l.37.78c.13.28.23.47.44.96.38.88.62,1.79.35,2.53-.07.19-.19.37-.32.53-.17.13-.32.27-.5.38-.36.21-.75.4-1.18.46-.94.19-1.94-.19-2.78-.79-.62-.47-1.09-.99-1.51-1.53-.84-1.08-1.48-2.23-2.04-3.39-.35-.72-.66-1.45-.94-2.2-.27-.77-.54-1.46-.7-2.43-.2-2.73,1.09-5.11,2.54-6.99,1.13-1.5,2.34-2.87,3.69-4.12.29-.28.58-.55.9-.81,1.17-.96,1.71-1.01,2.33-.66.14.08.3.15.41.24.36.3.14,1.03-.6,1.77-2.19,2.16-4.57,4.39-5.86,6.94-.46.93-.75,1.88-.77,2.78v.34s0,.17,0,.17v.07c.03.17.11.45.18.7.16.53.35,1.08.57,1.62l-.06.03Z"/><path class="cls-3" d="M220.92,281.22c.49,1.25,1.2,2.55,2.06,3.72.31.43.7.8,1.04,1.2.6.71,1.25,1.39,1.95,1.93.17.14.35.26.53.37l.26.15.14.07c.19.09.46.14.64-.02.02-.01.04-.04.05-.06.15-.13.14-.37.07-.55-.04-.09-.08-.18-.14-.28l-.25-.45c-.27-.46-.6-.91-.9-1.41-.29-.5-.61-1.06-.58-1.77.05-.45.2-.31.47-.08.29.24.85.42,1.22.87.45.51.97,1.02,1.47,1.69.11.11.29.46.46.77.1.15.11.33.17.5.05.17.11.34.1.5,0,.16.04.33.02.49l-.08.47c-.11.3-.26.57-.43.85-.12.13-.28.23-.4.37-.15.1-.33.17-.49.23-.34.14-.7.21-1.08.17-.37-.02-.75-.11-1.1-.26-.2-.08-.3-.14-.42-.21-.12-.07-.23-.13-.33-.21-1.33-.94-2.48-1.89-3.48-3.02-1.07-1.24-1.99-2.59-2.73-4.07-.44-.92-.81-1.89-1-2.96l-.05-.4c-.02-1.05.37-1.67.7-2.32.35-.63.75-1.21,1.18-1.77.72-.94,1.42-1.88,2.41-2.66.22-.17.42-.35.69-.49.96-.51,1.45-.35,1.74.17.07.12.15.24.19.37.07.21.02.43-.08.63-.1.19-.25.36-.46.54-1.23.96-2.49,2.44-3.4,3.96-.17.3-.31.59-.43.86-.1.26-.13.49-.15.43.06.46.23,1.07.48,1.65l-.05.03Z"/><path class="cls-3" d="M248.24,297.64c.39.84.78,1.68,1.17,2.52.14.3.35.58.48.89.49,1.09.83,2.26,1.21,3.4.16.51.38,1,.54,1.51.2.65.36,1.35.26,2.07-.03.22-.26.21-.56.08-.3-.14-.68-.35-.88-.65-.75-1.05-1.19-2.19-1.64-3.44-.26-.75-.76-1.41-1.15-2.13l-1.29-2.37c-.28-.48-.54-.97-.83-1.45-.44-.72-.85-1.47-1.36-2.14-.4-.52-.93-.94-1.41-1.42-.11-.1-.23-.19-.33-.31-.31-.46-.22-.72.36-1.21.13-.11.26-.23.4-.33.47-.34,1-.41,1.37-.2,1.06.64,1.72,1.66,2.37,2.7.48.78.9,1.6,1.34,2.42l-.05.04Z"/><path class="cls-3" d="M246.96,321.45c.45,1.39.96,2.76,1.55,4.1.21.49.49.94.72,1.42.79,1.71,1.58,3.42,2.61,5,.47.68.99,1.34,1.58,1.89.35.39.74.72,1.13,1.06.37.39.79.62,1.19.97.25.21.13.44-.25.57-.19.06-.45.11-.76.11-.31,0-.68-.04-.96-.23-.51-.31-1.11-.59-1.54-.99-.43-.4-.91-.79-1.28-1.25-.8-.87-1.46-1.83-2.05-2.83-.32-.61-.71-1.2-1.11-1.78-.36-.6-.73-1.21-1.07-1.82-.35-.69-.68-1.38-1.01-2.07l-.91-2.11c-.33-.88-.7-1.75-1.01-2.64-.5-1.34-.91-2.71-1.37-4.06-.36-1.05-.83-2.05-1.17-3.15-.07-.24-.17-.48-.22-.73-.13-.97.12-1.34.85-1.53.17-.05.34-.1.51-.13.57-.07,1.09.27,1.34.79.76,1.6,1.35,3.4,1.91,5.26.21.69.42,1.38.66,2.08.22.7.46,1.39.72,2.07l-.06.03Z"/><path class="cls-3" d="M294.82,302.28l-1.11.37c-.38.11-.76.18-1.14.27-.77.17-1.53.36-2.3.5-1.53.25-3.12.4-4.74.33-3.26-.1-6.35-1.18-9.09-2.53-2.01-.99-3.92-2.07-5.74-3.28-.38-.26-.77-.51-1.14-.77l-.56-.39-.19-.14s-.05-.03-.07-.06c-.05-.03-.09-.07-.14-.1-.06-.02-.12,0-.17.02-.05.02-.1.05-.16.08-.06.04-.07.04-.25.18-.58.46-1.19,1.02-1.78,1.58l-3.6,3.44c-2.43,2.3-4.95,4.55-7.71,6.54-2.77,1.97-5.79,3.86-9.25,4.66-.55.12-1.11.23-1.68.29-.28.04-.57.05-.86.07-.31,0-.51.04-.99-.02-.12-.03-.25-.06-.38-.1-.13-.05-.29-.15-.42-.24-.28-.24-.46-.6-.49-.88-.07-.57.06-.92.16-1.24.24-.62.54-1.1.85-1.58.62-.95,1.32-1.79,2.06-2.58.73-.8,1.5-1.56,2.33-2.25,1.03-.86,1-.65.51.42-.45,1.09-1.37,3.06-2.6,5.04-.27.43-.53.86-.72,1.27-.09.2-.17.4-.2.53-.02.08-.02.11-.02.13-.11-.03-.35-.05-.53-.03-.11-.02-.27.02-.35.04-.03-.01-.15.08-.11.04,0,0,0,0,0,0,.02-.02.05-.06.07-.09.02-.04.02-.05.05-.12.03-.07.06-.14.08-.21.02-.08.02-.14.03-.22.03-.11.04-.22.05-.33-.05-.02.11-.01.22-.03.12,0,.23-.01.35-.03.47-.04.94-.13,1.41-.23,1.88-.43,3.69-1.32,5.47-2.31,3.56-2.06,6.81-4.87,10.05-7.76,1.32-1.18,2.6-2.45,3.92-3.75.66-.65,1.32-1.3,2.07-1.95.29-.25.98-.85,1.65-1.14.34-.15.69-.24,1.06-.22.36.01.67.21,1,.39l1.34.89,1.07.69c.71.46,1.43.9,2.15,1.33,1.24.74,2.49,1.44,3.78,2.04,1.28.61,2.59,1.11,3.93,1.46,2.67.72,5.45.66,8.26.09,3.43-.62,6.72-2.03,9.86-3.73,4.77-2.57,9.29-5.79,14-8.68,3.65-2.24,7.38-4.42,11.63-5.67.94-.23,1.85-.57,2.83-.71,3.64-.58,4.85,0,5.54.83.16.2.37.4.45.59.27.63-1.16,1.2-3.5,1.46-7.03.92-13.55,4.97-20.17,9.29-2.48,1.59-4.97,3.24-7.63,4.74-2.65,1.49-5.41,2.92-8.42,3.88l-.03-.07Z"/><path class="cls-3" d="M369.33,274.41c-5.43,5.26-12.29,8.56-18.12,6.01-6.37-2.79-9.62-10.53-9.62-10.53l4.5-1.78,7.43,7.23,15.81-.93Z"/><path class="cls-3" d="M337.35,229.15c-.7.82-1.28,1.91-1.54,3.06-.09.43-.1.87-.13,1.31-.14,1.56.1,3.23.61,4.84.23.72.57,1.4.94,2.05.12.21.26.41.38.61l.35.64c.26.41.4.9.55,1.41.08.32,0,.34-.34.26-.25-.06-.5-.11-.71-.16-.14-.04-.32-.07-.45-.14-.13-.08-.25-.17-.35-.28-.81-.74-1.31-1.71-1.81-2.67-.48-.97-.84-2.02-1.02-3.12-.19-1.31-.49-2.67-.39-4.06.11-1.52.58-3.03,1.37-4.33.45-.81,1.12-1.59,1.89-2.17,1.17-.88,2.71-1.4,4.27-1.13,1.2.19,2.36.83,3.16,1.74.2.19.35.39.5.61.53.82.36,1.21-.25,1.62-.14.09-.28.2-.43.27-.5.24-1.1.11-1.42-.27-.52-.54-.99-.97-1.42-1.18-.42-.21-.81-.31-1.34-.26-.77.11-1.73.6-2.36,1.4l-.05-.04Z"/><path class="cls-3" d="M418.38,207.92c-5.37-2.33-11.3-3.7-17.21-3.55-1.56,0-3.13.03-4.78-.08-1.63-.11-3.44-.36-5.12-1.14-1.68-.76-3.05-1.85-4.25-2.92-1.21-1.08-2.32-2.19-3.41-3.3-3.08-3.14-6.57-5.74-10.41-7.72-6.71-3.56-14.68-4.7-22.1-2.92-7.43,1.73-14.15,6.32-18.63,12.59-2.02,2.75-3.59,5.87-4.74,9.08-1.09,3.24-1.69,6.67-1.96,10.08-.34,4.39-.05,8.84.9,13.09.48,2.13,1.2,4.18,2.17,6.1.49.96,1.04,1.88,1.69,2.73l.98,1.29c.36.4.71.82,1.12,1.18,1,.93,1.52,1.26,1.43,1.33-.04.02-.21-.03-.52-.15-.31-.11-.75-.3-1.29-.58-1.07-.56-2.73-1.41-4.17-3.07-1.5-1.6-2.84-3.86-3.7-6.47-1.57-4.63-1.95-9.49-1.74-14.25.11-2.39.38-4.76.84-7.12.46-2.35,1.08-4.72,2.04-6.98,3.55-8.99,10.85-16.63,19.96-20.16,5.41-2.13,11.45-2.95,17.35-2.2,5.9.73,11.6,3.01,16.41,6.37,1.32.93,2.6,1.92,3.81,2.98,1.2,1.05,2.38,2.21,3.45,3.28,2.21,2.14,4.36,4.39,6.88,5.18,1.27.43,2.74.53,4.24.59,1.51.05,3.06.01,4.61,0,3.27-.02,6.45.43,9.57,1.15,3.83.9,7.58,2.24,11.05,4.21,1.72,1,3.37,2.16,4.86,3.55l1.06,1.1c.35.37.63.77.95,1.16l.93,1.17c.29.4.55.83.83,1.24,3.38,5.02,4.95,11.13,4.93,17.11-.04,6.01-1.7,11.9-4.49,17.13-2.22,4.03-5.08,7.71-8.64,10.63-.9.72-1.8,1.44-2.78,2.04-.94.67-1.98,1.19-3,1.74-2.09.99-4.28,1.85-6.58,2.29-.51.1-1,.24-1.51.31l-1.52.18c-1.02.16-2.04.12-3.09.14-.24,0-.48,0-.71,0-.23-.02-.45-.04-.67-.07-.44-.05-.86-.09-1.26-.13-.81-.06-1.52-.22-2.18-.37-.65-.15-1.24-.28-1.76-.43-.51-.18-.97-.36-1.38-.53-1.66-.62-2.44-1.38-3-2.1-.25-.33-.61-.7-.71-.96-.18-.44.48-.51,1.78-.29.65.1,1.44.33,2.41.49.48.1.99.21,1.54.34.55.12,1.15.17,1.76.29,3.68.57,7.49.44,11.08-.62,3.59-1.06,6.97-2.9,9.89-5.37,2.9-2.5,5.36-5.57,7.27-8.97,1.87-3.42,3.17-7.18,3.81-11.03.91-5.73.22-11.7-2.25-16.91l-1-1.91-1.17-1.82c-.38-.61-.88-1.14-1.31-1.72-.44-.6-.92-1.07-1.39-1.56-1.98-1.93-4.51-3.43-7.18-4.64l.02-.08Z"/><path class="cls-3" d="M380.15,286.13c-.07.72-.16,1.42-.35,2.12-.13.7-.39,1.38-.64,2.05-.16.49-.38.98-.61,1.45-.19.42-.51.78-.78,1.15l-.42.55c-.17.16-.33.33-.5.48-.65.66-1.45,1.12-2.19,1.6-.73.3-1.38.77-2.12.98-.89.44-1.92.52-2.9.26-.3-.07-.27-.16-.06-.44.14-.2.28-.4.4-.57.16-.25.34-.48.56-.58.19-.11.39-.2.56-.35.17-.13.37-.19.55-.28l.56-.24c.18-.09.34-.21.51-.31.34-.21.72-.36,1.01-.62.3-.25.69-.41.97-.7.35-.32.74-.66.96-1.12l.38-.65c.09-.24.19-.47.3-.7.27-.49.38-1.06.58-1.59.12-.56.25-1.13.31-1.71l.08-1.08c0-.36-.03-.73-.04-1.09,0-.56-.14-1.1-.21-1.65-.11-.55-.29-1.08-.46-1.6-.37-.79-.89-1.46-1.4-2.11-.11-.15-.23-.28-.35-.41-.38-.54-.25-.89.24-1.46.11-.13.22-.27.34-.39.39-.4.95-.44,1.53-.1.43.25.76.59,1.06.95.3.37.63.74.86,1.16.22.43.41.87.6,1.32.15.46.28.93.41,1.4.18.7.25,1.43.34,2.14,0,.73.08,1.45.01,2.17h-.07Z"/><path class="cls-3" d="M337.26,275.06c-.77,1.19-1.4,2.51-1.81,3.91-.16.51-.18,1.04-.32,1.56-.46,1.82-.63,3.77-.26,5.64.13.84.45,1.64.83,2.39l.42.69.47.65c.08.11.17.21.25.31l.21.37c.14.25.31.47.49.7.21.29.1.39-.29.37-.35-.04-1.17-.02-1.81-.47-2-1.74-3.3-4.4-3.23-7.03,0-1.55-.12-3.16.17-4.71.33-1.69.91-3.32,1.69-4.84.46-.94,1.05-1.83,1.66-2.68.95-1.28,2.12-2.4,3.4-3.38,1-.74,2.03-1.53,3.27-1.98.27-.11.53-.23.82-.28,1.07-.24,1.46.05,1.68.84.05.19.11.37.14.56.08.63-.27,1.18-.81,1.41-1.58.83-2.97,1.57-4.3,2.8-.98.88-1.87,1.97-2.59,3.19l-.07-.03Z"/><path class="cls-3" d="M396.62,302.33c.96.89,1.95,1.74,2.86,2.67.94.91,1.86,1.83,2.74,2.78.66.68,1.37,1.31,1.98,2.03,2.21,2.5,4.17,5.22,6.06,7.95.84,1.21,1.7,2.41,2.51,3.63.98,1.6,2.05,3.18,2.51,5.06.17.57-.07.6-.61.33-.27-.13-.63-.33-1.02-.59-.19-.13-.41-.26-.59-.43-.18-.17-.34-.37-.5-.57-2.3-2.92-4.37-5.94-6.59-8.97-.64-.92-1.43-1.76-2.2-2.62-.8-.83-1.62-1.64-2.4-2.49-.89-.89-1.77-1.8-2.68-2.68-.93-.85-1.82-1.76-2.79-2.57l-1.77-1.53-1.84-1.44c-1.87-1.43-3.82-2.79-5.86-3.93-1.61-.84-3.29-1.45-4.98-1.99-.37-.12-.74-.24-1.11-.34-1.37-.44-1.7-.85-1.71-1.83,0-.22-.03-.46,0-.67.08-.72.85-1.07,2.01-.89,3.41.62,6.69,2.26,9.68,4.21,1.12.72,2.18,1.51,3.25,2.3,1.03.84,2.09,1.63,3.08,2.5l-.05.06Z"/><path class="cls-3" d="M341.46,229.98c1.12-2.8,2.41-5.53,3.84-8.18.72-1.33,1.48-2.63,2.3-3.92l.63-.96.33-.48.47-.65c.41-.53.84-1.08,1.36-1.34.12-.08.26-.1.42-.1h.06s.03,0,.03,0h.01s-.03-.18-.01-.09h0s.11.02.11.02l.22.03.87.14.82.37c.16.07.23.1.3.13l.22.09.88.34c.59.19,1.16.41,1.77.57,1.19.36,2.43.63,3.66.89,2.49.5,5.03.83,7.6,1.11,3.99.42,8.03.59,12.09.96,1.79.16,3.59.35,5.4.62,1.81.27,3.63.6,5.47,1.22.91.29,1.84.7,2.74,1.25l.66.46.63.57c.4.43.76.93.99,1.42.51.99.75,2.08.8,3.11.06,1.04-.08,2.03-.26,2.98-.82,3.79-2.56,7.01-4.14,10.21-.79,1.58-1.62,3.17-2.16,4.72-.13.39-.23.76-.29,1.11-.05.39-.06.52,0,.73.07.18.22.36.41.42.25.16.56.23.81.27.44.07.94-.19,1.47-.61.53-.41,1.04-.97,1.57-1.56,1.06-1.16,2.16-2.46,3.69-3.4.38-.23.77-.46,1.2-.61.41-.19.85-.31,1.3-.4.89-.19,1.74-.24,2.65-.17,1.79.07,3.74,1.17,4.63,2.85.59,1.05.86,2.21.9,3.33.05,1.12-.08,2.23-.33,3.29-.55,2.11-1.54,4.12-3.07,5.72-.78.78-1.65,1.48-2.65,1.99-1.01.49-2.09.83-3.21.91-2.24.15-4.41-.63-6.06-1.9-.98-.86-1.35-1.27-1.3-1.28.06-.02.58.33,1.58.72,1.01.35,2.47.76,4.11.74,1.64-.01,3.38-.66,4.81-2.01.64-.59,1.2-1.27,1.66-2.03.48-.74.9-1.54,1.18-2.39.59-1.67.76-3.54.31-4.96-.46-1.44-1.41-2.11-2.98-2.17-1.71-.08-2.97.38-4.32,1.6-.67.58-1.3,1.3-2.01,2.08-.73.77-1.44,1.66-2.72,2.44l-.5.27c-.2.07-.4.14-.61.21-.39.15-.85.17-1.3.18-.46.04-.84-.12-1.26-.21-.22-.05-.38-.13-.54-.21l-.6-.31c-.25-.1-.41-.27-.59-.44-.17-.17-.39-.3-.5-.52-.29-.39-.46-.85-.56-1.32-.04-.24-.07-.48-.08-.72,0-.24.02-.46.03-.63.04-.36.1-.69.18-1,.31-1.22.76-2.23,1.2-3.21.45-.98.93-1.92,1.4-2.85.94-1.85,1.89-3.66,2.69-5.49.93-2.17,1.7-4.51,1.49-6.57-.1-1-.48-1.97-1.12-2.52-.67-.63-1.72-1.12-2.83-1.47-2.25-.71-4.76-1.04-7.25-1.31-2.51-.26-5.05-.44-7.58-.63-3.85-.3-7.72-.59-11.6-1.14-1.94-.28-3.88-.62-5.81-1.08-.96-.23-1.92-.49-2.88-.8-.48-.16-.96-.31-1.41-.49l-.69-.26c-.14-.05-.17-.07-.21-.09l-.14-.06-.25-.11c-.09-.07-.15.07-.21.11-.06.07-.12.14-.17.21l-.2.27c-.48.68-.94,1.39-1.39,2.11-.89,1.45-1.72,2.94-2.5,4.47-3.07,6.04-5.46,12.5-6.53,19.17-.79,5.03-.8,10.25.62,15.11,1.43,4.82,4.23,9.31,8.38,12.08,3.18,2.19,6.96,3.35,10.76,3.58,3.81.24,7.64-.4,11.26-1.61,1.6-.53,3.09-1.23,4.6-2.01,2.78-1.46,4.44-2.7,5.67-3.51,1.21-.82,1.98-1.24,2.72-1.49.34-.11.75-.31,1-.33.42-.04.26.49-.44,1.53-.72,1-2.01,2.49-4.01,4-5.93,4.42-13.67,7.11-21.64,6.35-3.96-.35-7.95-1.64-11.37-3.94-1.71-1.15-3.27-2.52-4.61-4.09-1.33-1.57-2.44-3.31-3.36-5.13-2.72-5.44-3.44-11.61-2.95-17.43.48-5.86,2.05-11.49,4.14-16.84h.07Z"/><path class="cls-3" d="M233.08,286.7c-.18-.15-.65-.33-1.15-.46-.51-.13-1.07-.24-1.65-.34l-3.64-.56c-.92-.16-1.87-.26-2.9-.65l-.34-.14c-.13-.06-.3-.14-.44-.22-.29-.17-.58-.36-.81-.59-.48-.45-.82-1.04-.9-1.68-.09-.64.07-1.3.35-1.88.13-.3.33-.56.53-.81.19-.23.38-.42.59-.58.84-.67,1.71-.97,2.53-1.21.83-.24,1.64-.37,2.43-.49,1.41-.22,2.78-.44,4.09-.76,1.69-.46,3.2-.93,4.83-1.49.49-.21.55-.1.38.45-.09.27-.24.66-.49,1.11-.13.22-.27.47-.46.68-.19.19-.42.37-.67.52-.44.25-.88.53-1.35.69-.47.17-.93.31-1.39.44-.92.25-1.84.45-2.73.63-1.76.36-3.54.61-4.85,1.11-.37.14-.69.38-.84.55-.12.13-.2.3-.19.49.02.19.17.32.33.4.06.03.05.03.17.07.1.04.19.08.31.11.21.07.45.14.69.2,2.19.55,4.68.63,7.26,1.27.41.11.81.23,1.25.43.46.21.84.48,1.18.78.71.6,1.21,1.35,1.61,2.03.6,1.05,1.07,1.98,1.76,2.7.69.72,1.58,1.23,2.57,1.57,1.56.5,3.26.51,4.94.49.37,0,.74-.04,1.12-.05,1.4-.01,1.85.17,2.16.95.07.18.16.35.21.53.14.6-.44,1.1-1.52,1.27-1.61.23-3.3.3-5.07.09-1.75-.22-3.69-.69-5.45-1.98-1.32-.93-2.23-2.35-2.82-3.43-.61-1.11-1.04-1.77-1.66-2.16l.04-.06Z"/><path class="cls-3" d="M352.84,227.15c1.6-.47,3.23-.64,4.9-.43,1.67.18,3.41,1.01,4.63,2.33.88.97,1.5,2.16,1.72,3.39.19,1.08.15,2.16-.03,3.18-.21,1.02-.55,1.98-1,2.87-.89,1.71-1.98,3.29-3.31,4.67-1.18,1.22-2.51,2.33-4.06,3.09-1.96.94-4.43,1.3-6.4.29-.58-.4-.5-.29.09-.44.59-.08,1.59-.5,2.6-.66.91-.17,1.77-.46,2.57-.9.81-.41,1.59-.92,2.3-1.54,1.43-1.24,2.63-2.81,3.67-4.5.64-1.04,1.05-2.08,1.2-3.22.14-1.12-.01-2.23-.41-3.17-.43-1.05-1.27-1.82-2.33-2.27-1.08-.41-2.36-.57-3.65-.43-1.57.15-3.12.73-4.37,1.68-1.92,1.41-3.11,3.84-2.71,6.21.26,1.83,1.49,3.32,3.04,3.94.34.15.69.23,1.05.31,1.35.26,1.81.29,2.21.95.09.14.22.29.28.43.11.25.02.49-.3.71-.31.22-.85.39-1.57.41-2.12.07-4.52-1.02-5.9-3.02-.7-.98-1.15-2.14-1.34-3.31-.19-1.17-.15-2.37.12-3.54.43-1.73,1.37-3.32,2.62-4.52,1.25-1.19,2.75-2.08,4.36-2.58l.03.06Z"/><path class="cls-3" d="M351.24,259.96c1.98,2.89,6.5,3.24,9.3,1.41.6-.39.91-1.23.49-1.88-.39-.6-1.24-.92-1.88-.49-.13.09-.27.17-.41.25-.07.04-.14.07-.21.11-.18.09-.09.08.02,0-.21.17-.67.23-.93.29-.1.02-.19.04-.29.06-.18.04,0,.02.07,0-.15.05-.34.04-.49.04-.34.02-.69,0-1.03-.03-.03,0-.06,0-.1-.01-.11-.01-.06,0,.13.02-.05.02-.19-.03-.24-.04-.16-.03-.31-.07-.46-.11s-.3-.09-.45-.14c-.03-.01-.06-.02-.09-.03-.1-.04-.06-.02.12.05-.03.01-.18-.08-.21-.1-.13-.07-.26-.14-.39-.22-.06-.04-.12-.08-.18-.12-.21-.13.15.14.04.03-.1-.1-.21-.19-.31-.29-.02-.02-.12-.16-.14-.16.06,0,.19.27.01,0-.41-.59-1.23-.92-1.88-.49-.59.38-.93,1.25-.49,1.88h0Z"/><path class="cls-3" d="M374.62,227.37c.62-.23,1.26-.41,1.92-.52.09-.02.19-.03.28-.04-.13.02-.11.02.06,0,.14-.01.28-.03.43-.03.35-.02.71-.03,1.07-.01,1.11.04,2.52.37,3.49.83.65.3,1.51.2,1.88-.49.32-.61.2-1.56-.49-1.88-2.92-1.37-6.31-1.62-9.36-.49-.67.25-1.2.94-.96,1.69.21.66.97,1.23,1.69.96h0Z"/><path class="cls-3" d="M363.26,223.2c-.5-.83-1.2-1.52-2.02-2.04s-1.77-.8-2.75-.89c-.33-.03-.75.18-.97.4-.24.24-.42.63-.4.97s.13.72.4.97.59.37.97.4c.07,0,.14.01.22.02l-.37-.05c.39.06.78.16,1.15.31l-.33-.14c.38.16.74.37,1.07.62l-.28-.22c.31.24.6.52.84.84l-.22-.28c.11.14.21.29.31.45.18.3.48.54.82.63s.77.05,1.06-.14c.62-.4.89-1.22.49-1.88h0Z"/><path class="cls-3" d="M386.03,313.88c-.03.22-.03.25,0,.11-.09.18-.1.23-.05.14.05-.08-.24.19-.01.02.07-.07.04-.04-.11.08.05-.03.1-.07.15-.09l.08-.04c.13-.06.11-.05-.08.03,0-.02.25-.07.27-.08.05-.01.09-.02.14-.03.11-.02.06-.01-.13.02.01-.07.73.06.32-.01,1.22.23,2.42.72,3.67.34,2.03-.62,3.09-2.81,3.08-4.82,0-.72-.63-1.41-1.38-1.38s-1.38.6-1.38,1.38c0,.11,0,.23,0,.34,0,.05-.06.37-.01.16.06-.23-.04.16-.05.2-.02.1-.05.19-.08.29s-.06.19-.1.28c-.11.31.14-.25-.02.03-.05.09-.19.47-.29.49.12-.15.14-.17.04-.06-.03.04-.06.07-.09.1-.06.06-.15.12-.2.19-.08.07-.04.04.1-.07-.05.04-.1.07-.15.1-.04.02-.22.15-.24.13.17-.07.21-.09.12-.05-.04.02-.09.03-.13.04-.09.03-.33.03-.04.03-.13,0-.26,0-.39,0-.17-.02-.17-.01-.03,0-.07-.01-.13-.02-.2-.04-1.13-.23-2.18-.61-3.34-.32-.53.13-1.04.4-1.44.77-.5.47-.69,1.05-.78,1.71-.09.72.7,1.41,1.38,1.38.82-.04,1.28-.61,1.38-1.38h0Z"/><path class="cls-3" d="M347.58,315.34c.77-.43,1.32-1.14,1.69-1.93.19-.41.36-.84.53-1.26-.07.16-.07.16,0,0,.04-.09.08-.18.13-.27.08-.16.17-.32.27-.48.02-.04.18-.27.06-.1s.05-.05.08-.09c.08-.09.17-.17.27-.25-.23.17.1-.04.12-.06.03-.02.32-.16.16-.09s.15-.05.18-.06c.12-.04.24-.06.36-.09.29-.07-.2,0,.12-.02.22,0,.43-.02.65,0,0,0,.44.05.19.01.12.02.23.04.34.06.53.11,1.04.28,1.55.46.68.24,1.53-.27,1.69-.96.18-.77-.23-1.43-.96-1.69-2.15-.77-4.88-1.1-6.61.74-.66.7-1,1.56-1.36,2.43-.06.15-.11.25-.02.04-.04.09-.08.18-.12.27-.08.18-.17.35-.27.52-.04.06-.1.2-.16.24l.1-.13s-.08.09-.13.14c-.03.03-.21.24-.07.08.13-.15-.12.07-.18.1-.63.35-.89,1.27-.49,1.88s1.21.87,1.88.49h0Z"/><path class="cls-3" d="M302.96,319.03c.2.08.39.18.57.29.08.05.15.1.22.15.14.09-.17-.16.01.02.16.15.31.29.45.45.17.19-.07-.12.01.02.04.08.1.15.15.22.06.09.11.18.15.28.02.05.05.1.07.14.04.09.03.06-.04-.08.09.11.13.39.16.53.1.44.14.89.22,1.33.16.96.56,1.9,1.31,2.54s1.61,1.01,2.52,1.36c.67.26,1.54-.29,1.69-.96.18-.79-.24-1.41-.96-1.69-.1-.04-.2-.08-.3-.12-.04-.01-.32-.14-.13-.05s-.09-.04-.13-.06c-.1-.05-.19-.09-.29-.14-.17-.09-.33-.2-.49-.3-.14-.09.17.17,0-.01-.07-.07-.15-.14-.22-.22-.17-.18.06.13,0-.01-.04-.08-.1-.16-.14-.24-.16-.3.05.23-.03-.09-.02-.09-.05-.18-.08-.28-.1-.42-.15-.84-.21-1.26-.28-1.79-1.42-3.45-3.11-4.18-.66-.28-1.51-.22-1.88.49-.31.59-.21,1.58.49,1.88h0Z"/><g class="cls-4"><path class="cls-3" d="M288.46,313.24c2.09,0,2.09-3.25,0-3.25s-2.09,3.25,0,3.25h0Z"/></g><g class="cls-4"><path class="cls-3" d="M354.91,332.38c2.73,0,2.74-4.25,0-4.25s-2.74,4.25,0,4.25h0Z"/></g><g class="cls-4"><path class="cls-3" d="M363.76,294.16c2.73,0,2.74-4.25,0-4.25s-2.74,4.25,0,4.25h0Z"/></g><g class="cls-4"><path class="cls-3" d="M397.07,326.98c2.09,0,2.09-3.25,0-3.25s-2.09,3.25,0,3.25h0Z"/></g><path class="cls-1" d="M137.22,390.7s-9.16-3.32-9.86,3.89c-.7,7.2,6.72,12.69,10.16,12.49s3.83,5.26,3.83,5.26c0,0,2.78,6.65,12.28,9.67s20.27,1.44,24.41-1.39c4.14-2.82,9.49-11.58,9.26-17.37s-.47-14.65-1.91-18.63-7.29-15.77-10.8-18.22c-3.51-2.45-13.89-5.85-13.89-5.85,0,0-6.33,19.78-10.77,22.41s-12.71,7.73-12.71,7.73Z"/><path class="cls-3" d="M163.91,373.28c-2.33-1-4.88-1.23-7.34-.54-.63.18-1.08.89-.87,1.54s.86,1.06,1.54.87c.25-.07.51-.13.76-.18.13-.03.26-.04.39-.07.09-.01.07-.01-.05,0,.07,0,.15-.02.22-.02.5-.05,1.01-.06,1.51-.03.13,0,.26.02.39.03.03,0,.4.06.11.01.26.04.52.09.77.15s.51.13.76.21c.11.03.21.07.32.11.04.02.47.19.22.08.32.14.61.22.96.13.29-.08.6-.3.75-.57.28-.54.19-1.44-.45-1.71h0Z"/><path class="cls-3" d="M166.49,383.03c.96,2.69,2.84,5.57,5.61,6.62,1.58.6,3.49.3,4.79-.78s1.36-2.85.97-4.37c-.42-1.62-1.28-3.1-2.02-4.59-.29-.59-1.17-.8-1.71-.45-.6.39-.76,1.08-.45,1.71.27.54.55,1.06.81,1.6.13.27.26.54.39.82.04.09.08.19.12.28-.02-.04-.1-.24,0-.02.07.17.14.34.2.52.1.29.2.59.27.89.04.15.06.3.1.46.02.08.01.23,0-.06,0,.09.02.18.02.26,0,.14,0,.28,0,.42,0,.23,0-.07.02-.09-.02.02-.04.2-.05.24-.01.05-.03.1-.04.15-.05.21.04-.06.04-.08-.01.07-.07.15-.11.21l-.04.07c-.08.11-.06.09.05-.06.02.03-.25.25-.26.27-.1.12.25-.14,0-.01-.05.03-.11.07-.16.1-.09.05-.18.09-.28.14.04-.02.23-.08.01,0-.17.06-.34.11-.52.15-.08.02-.15.03-.23.04.28-.06.13-.01.06-.01-.15,0-.3.01-.45,0,0,0-.17,0-.18-.01l.16.02c-.06,0-.12-.02-.17-.03-.14-.03-.29-.07-.43-.11-.07-.02-.14-.06-.21-.07-.17-.03.27.13.01,0-.13-.07-.27-.13-.4-.21-.11-.06-.21-.12-.31-.19-.08-.05-.15-.11-.23-.16-.21-.15.17.15-.04-.03-.48-.42-.88-.87-1.29-1.34-.13-.15.17.24-.01-.01-.06-.08-.11-.15-.17-.23-.1-.14-.2-.29-.29-.43-.18-.28-.36-.58-.52-.87-.15-.28-.29-.56-.42-.84-.03-.06-.05-.12-.08-.18-.11-.26.1.27,0,.01-.05-.13-.1-.27-.15-.4-.22-.61-.86-1.09-1.54-.87-.61.2-1.11.88-.87,1.54h0Z"/><path class="cls-1" d="M117.43,447.88s-8.84-3.53-6.58-6.6c2.26-3.07,9.49,1.07,9.49,1.07l-2.91,5.53Z"/><path class="cls-3" d="M160.7,360.56s8.33,6.89,12.46,7.04c4.13.15,8.42-.72,12.65-3.52,7.74-5.13,5.3-24.54-9.22-28.43-13.84-3.71-17.88,1.55-18.17,2.58s-4.78,5.81-4.78,5.81c0,0-12.97-5.87-18.93-4.51-5.95,1.37-16.24,7.12-19.34,11.68s-8.09,13.58-7.86,19.38-2.41,19.42-4.37,25.48c-1.96,6.06-6.94,17.8-11.79,23.03s-14.14,13.82-16.26,18.9c-2.13,5.08-4.81,11.37-2.99,16.54,1.82,5.18,5.75,14.12,10.54,17.66,4.79,3.53,10.55,6.82,14.05,7.71,3.5.89,13.94-.14,13.94-.14l9.71-20.69-4.45-11.2-5.55-5.24s3.21-3.66,5.04-2.53c1.83,1.13,3.8.65,3.8.65,0,0,9.46-14.43,12.85-12.3s6.91-2.5,9.52.89c2.61,3.39,3.73,3.82,7.51,2.32s23.05,6.34,23.05,6.34c0,0,9.6,2.43,9.24-2.04,0,0-.46-5.32-1.86-7.78s-4.64-4.62-4.64-4.62c0,0-7.57,1.93-11.71,1.46s-20.21-6.32-20.21-6.32c0,0-3.32,5.97-6.65,4.59-3.32-1.38-7.39-3.47-7.04-6.26s5.32-9.97,5.32-9.97c0,0-7.13-2.85-7.8-8.87s6.24-8.24,6.24-8.24h6.65s9.57-4.6,11.99-7.82,7-12.63,7-12.63l2.05-8.97Z"/><path class="cls-3" d="M176.06,423.3s5.68-5.06,7.41-8.6,4.05-7.32,4.05-7.32c0,0,4.57,4.69,7.01,5.33,2.44.65,14.09,7.16,6.8,22.12l-4.33,6.39-15.64-13.74-5.3-4.18Z"/><path class="cls-3" d="M113.91,474.91c-.55,1.03-1.04,2.09-1.56,3.14-.48,1.07-.97,2.14-1.42,3.22-.32.8-.56,1.62-.88,2.42-1.13,2.81-2.25,5.66-3.17,8.57-.4,1.3-.74,2.62-1.07,3.92-.44,1.68-.69,3.4-1.61,4.97-.39.47-.32.41-.54-.11-.3-.53-.63-1.47-.56-2.49.17-1.79.49-3.55.88-5.3.44-1.74.96-3.46,1.59-5.16.78-2.02,1.25-4.23,2.05-6.3.43-1.14.87-2.28,1.36-3.4.46-1.13.98-2.24,1.5-3.34.62-1.37,1.35-2.69,2.03-4.02,1.08-2.01,2.28-3.95,3.49-5.86.48-.74.9-1.5,1.34-2.26.48-.73.91-1.5,1.36-2.26.19-.34.4-.67.63-.98.88-1.16,1.34-1.38,2.21-1,.19.08.4.15.57.26.58.35.66,1.2.13,2.05-.78,1.27-1.64,2.51-2.48,3.8-.77,1.33-1.64,2.62-2.4,3.99-1.18,1.99-2.33,4.04-3.37,6.15l-.07-.03Z"/><path class="cls-3" d="M112.39,442.3s.02.07.04.13c.07.1.13.21.23.33.17.24.42.5.66.77l1.63,1.7c.39.44.84.86,1.21,1.34,1.29,1.73,2.34,3.7,2.81,5.79.23.91.47,1.82.56,2.74.16,1.16.22,2.35,0,3.5-.06.36-.27.31-.53.01-.26-.29-.62-.82-.82-1.42-.29-1.08-.69-2.1-1.07-3.09-.35-1-.78-1.94-1.17-2.92-.46-1.21-1.39-2.2-2.29-3.18l-1.55-1.66c-.54-.57-1.11-1.14-1.66-1.86-.31-.42-.74-1.09-.84-1.81-.11-.71.17-1.48.55-1.99.52-.79,1.28-1.35,2.12-1.68.85-.32,1.74-.39,2.58-.31,1.3.15,2.57.51,3.69,1.26.25.16.51.31.69.56.36.43.51.79.52,1.08-.04.33-.17.57-.38.8-.09.11-.18.22-.27.29-.16.13-.36.15-.62.13-.26-.02-.6-.05-.84-.19-.84-.29-1.41-.73-2.13-.93-.68-.22-1.37-.34-1.87-.22-.38.08-.67.26-.95.53l-.16.19s-.02.01-.04.03c-.02.01-.03.03-.03.05l-.07.03Z"/><path class="cls-3" d="M199.35,439.76c1.39,1.34,2.8,2.66,4.11,4.08l2,2.1,1.95,2.14c.96,1.03,1.94,2.04,2.85,3.12,1.63,1.87,3.14,3.85,4.66,5.8,1.47,2,2.93,4,4.3,6.06l.95,1.35.91,1.37c.62.91,1.23,1.82,1.84,2.72.72,1.2,1.43,2.41,2.15,3.61.67,1.23,1.27,2.5,1.86,3.76.36.79.09.8-.54.32-.62-.49-1.66-1.44-2.58-2.74-1.69-2.26-3.36-4.51-4.97-6.81-1.65-2.27-3.31-4.54-5.01-6.8-1.99-2.75-4.44-5.3-6.78-7.85-1.28-1.41-2.63-2.76-3.94-4.15-1.36-1.34-2.7-2.7-4.08-4.02l-2.55-2.44-2.63-2.36c-2.67-2.36-5.42-4.66-8.26-6.78-1.12-.8-2.25-1.56-3.39-2.3l-3.46-2.15c-.51-.32-1.01-.62-1.52-.94-1.88-1.21-2.3-1.87-2.29-2.76,0-.21-.02-.43.01-.61.13-.59,1.17-.51,2.7.18,4.47,2.18,8.75,5.2,12.87,8.43,1.54,1.19,3.02,2.46,4.52,3.71,1.45,1.3,2.94,2.57,4.37,3.9l-.05.06Z"/><path class="cls-3" d="M176.8,439.58c-3.11.13-5.85-.61-8.49-1.39-.96-.3-1.93-.53-2.86-.88-3.28-1.25-6.37-2.81-9.5-4.14-.69-.29-1.4-.57-2.1-.79-.69-.23-1.41-.46-2.05-.56-.46-.06-.62-.06-1.05.09-.4.13-.83.34-1.27.51l-1.34.53-.69.25c-.24.07-.5.09-.77.12-.69,0-.57,0-.24-.5.29-.57.86-1.46,1.82-2.11.43-.3.87-.56,1.39-.79.25-.12.54-.24.88-.34.4-.11.84-.14,1.18-.13,1.32.08,2.3.34,3.3.67,1.95.66,3.78,1.45,5.59,2.29,2.16,1.01,4.53,1.68,6.79,2.44,2.49.82,5.02,1.53,7.52,1.7,1.53.11,3.06-.03,4.28-.66l.34-.18c.11-.06.15-.11.23-.16.12-.13.25-.26.34-.45.2-.36.28-.86.29-1.39.01-1.07-.3-2.22-.77-3.27-.74-1.64-1.93-3.06-3.3-4.09-.3-.22-.62-.41-.92-.6-1.13-.71-1.39-.95-1.36-1.92,0-.22-.02-.44,0-.65.03-.68.96-1.09,2.25-.53,1.89.82,3.32,2.31,4.54,3.9,1.19,1.63,2.12,3.49,2.52,5.7.14.83.2,1.72.04,2.71-.17.97-.65,2.16-1.65,2.99l-.38.29c-.12.08-.2.12-.31.18l-.6.33c-.4.18-.82.35-1.23.47-.82.24-1.64.39-2.42.44v-.08Z"/><path class="cls-3" d="M206.72,423.18c-.17-2.27-1.11-4.36-2.95-5.81-.67-.54-1.46-.94-2.25-1.36-2.82-1.48-6.28-2.17-9.55-3.61-.72-.32-1.44-.67-2.14-1.07-.71-.38-1.42-.97-1.91-1.67-.65-.9-.96-1.98-1.05-3-.03-.26-.03-.51-.04-.77.02-.26.04-.51.08-.76.06-.5.17-.99.25-1.47.08-.6.12-.52.18,0,.03.26.12.63.27,1.06.07.22.16.45.25.69.05.12.09.24.16.36.02.13.06.25.09.38.21.9.57,1.7,1.08,2.25.26.28.54.52.87.7.08.05.16.1.25.13l.25.15.6.31c1.62.81,3.44,1.35,5.33,1.96,2.25.72,4.84,1.22,7.19,2.48,1.28.69,2.51,1.59,3.5,2.75,1,1.16,1.71,2.54,2.13,3.96.53,1.73.58,3.65.45,5.31-.19,2.6-.73,5.19-1.68,7.64-.71,1.9-1.6,3.79-2.93,5.43-.29.36-.61.69-.94,1.02-1.32,1.14-1.96,1.2-2.68.72-.17-.11-.35-.21-.48-.34-.45-.46-.19-1.22.47-2.04.25-.31.49-.61.71-.94.23-.31.44-.64.64-.97.45-.61.84-1.27,1.22-1.94.75-1.34,1.32-2.82,1.75-4.39.31-1.16.54-2.37.68-3.61.07-.62.12-1.24.16-1.87.04-.58.03-1.13-.03-1.7h.07Z"/><path class="cls-3" d="M173.62,421.24c2.01-.82,3.79-2.03,5.37-3.49l1.1-1.21c.18-.2.38-.4.55-.61l.46-.68.93-1.36c.28-.47.51-.98.77-1.47l.54-1.09.39-1.16c.26-.77.56-1.53.73-2.34,1.58-5.6,1.49-11.72.51-17.61-.52-2.61-1.14-5.22-2.06-7.71-.28-.8-.56-1.61-.91-2.38-.32-.79-.59-1.6-.92-2.38-.68-1.56-1.26-3.17-1.86-4.81-.2-1.12-.29-.91.46-.29.38.31.88.78,1.5,1.35.31.28.64.6.93.97.28.38.56.79.82,1.23,3.62,6.31,5.33,13.63,5.42,20.96.01,4.37-.22,9.02-1.69,13.37-1.61,4.72-4.52,9.24-8.92,11.92-2.64,1.67-5.62,2.69-8.63,3.21-4.59.71-9.3.31-13.67-.99-3.41-.96-6.68-2.3-9.66-4.24-.69-.38-1.29-.85-1.91-1.35-.57-.46-1.04-.84-1.4-1.21-.34-.38-.6-.71-.78-1-.36-.59-.44-1.05-.36-1.55.04-.23.05-.48.13-.66.27-.6,1.48-.19,3,1.02,2.4,1.66,4.9,3.19,7.59,4.42,2.7,1.22,5.6,2.06,8.55,2.49,4.38.67,8.95.27,12.96-1.42l.04.07Z"/><path class="cls-1" d="M127.36,481.15s.86-4.59-1.17-8.41c-2.03-3.83-6.31-15.44-6.87-18.51s-1.27-11.98.72-14.9c1.99-2.93,7.03-9.47,9.73-10.44,2.69-.97,5.46-.03,5.46-.03,0,0,5.15-.7,6.32.5,1.17,1.2,1.81,2.24,2.61,3.39.81,1.15-1.78,4.96-1.78,4.96l-.53,1.48s4.15-.87,5.23.33c1.07,1.2-4.76,4.36-5.62,7.32-.86,2.96-1.54,5.69-.7,9.26s-.96,8.52-1.73,10.06-.86,3.84-.14,5.22c.72,1.39,2.46,5.88,2.46,5.88l-9.99,2.66-4.01,1.24Z"/><path class="cls-3" d="M117.2,449.07c.12-.71.26-1.41.4-2.11.05-.26.08-.51.15-.76.23-.89.47-1.77.68-2.66.09-.39.15-.79.2-1.19.1-.5.17-1.01.33-1.5.05-.15.19-.13.34.02.14.14.34.43.36.73.02.27.03.55.03.82,0,.27-.06.53-.1.79-.09.52-.21,1.04-.35,1.55-.18.61-.22,1.27-.33,1.91-.12.7-.3,1.39-.43,2.09-.08.43-.17.86-.24,1.29-.1.65-.21,1.31-.23,1.96-.02.5.02,1,.07,1.48.01.11.03.21.04.31.04.38.01.5-.21.65-.05.03-.1.07-.14.1-.16.09-.35-.05-.48-.37-.35-.95-.4-1.97-.33-2.95.04-.73.14-1.45.24-2.17h.03Z"/><path class="cls-3" d="M156.28,474.01c.46.41.89.83,1.3,1.28.15.16.33.29.46.46.45.64.83,1.31,1.19,1.97.17.29.3.6.46.88.19.37.35.76.44,1.18.03.13-.03.14-.17.09-.13-.06-.36-.15-.53-.32-.3-.28-.6-.56-.9-.84-.29-.27-.5-.61-.73-.93-.25-.41-.7-.67-1.04-1.01-.37-.38-.76-.74-1.18-1.08-.26-.21-.52-.41-.8-.59-.42-.27-.85-.54-1.32-.71-.37-.13-.76-.16-1.13-.22-.08-.02-.17-.01-.25-.03-.3-.07-.36-.22-.32-.68l.03-.32c.05-.35.26-.6.54-.65.83-.13,1.71,0,2.43.43.55.29,1.06.66,1.55,1.04l-.02.04Z"/><path class="cls-3" d="M136.88,467.96c.15.21.29.43.42.64.05.07.13.12.17.2.14.3.21.63.31.91.04.13.1.24.17.34.05.16.08.33.05.51,0,.06-.07.08-.17.09-.1,0-.28.03-.39,0-.09-.03-.18-.05-.27-.08-.08-.03-.12-.08-.17-.13-.1-.09-.18-.2-.24-.33-.06-.17-.26-.2-.37-.33-.12-.13-.24-.27-.37-.41-.08-.08-.16-.16-.25-.23-.14-.1-.27-.23-.44-.27-.14-.03-.31.05-.45.07-.03,0-.07.03-.1.03-.1,0-.09-.14.03-.61l.08-.32c.1-.36.24-.65.38-.72.2-.12.4-.16.58-.15.17.04.33.12.47.22.22.15.4.34.57.53l-.02.03Z"/><path class="cls-3" d="M140.19,472.36s10.09-1.08,11.72.24c1.63,1.32-8.4,3.9-8.6,3.98s-3.12-4.22-3.12-4.22Z"/><path class="cls-3" d="M137.49,477.93c-.82.25-1.66.47-2.49.68-.3.08-.6.19-.9.26-1.08.25-2.19.35-3.29.44-.49.05-.97.12-1.45.18-.31.04-.62.08-.92.12-.31,0-.63-.03-.94-.1-.2-.13-.18-.15-.03-.37.14-.21.41-.51.74-.65,1.19-.29,2.37-.58,3.59-.74.73-.11,1.46-.34,2.19-.54.8-.21,1.61-.43,2.4-.68.49-.16.98-.31,1.46-.5.73-.27,1.47-.55,2.16-.9.53-.29,1.02-.64,1.53-.94.11-.07.22-.14.34-.2.46-.17.66-.13.92.13.06.06.12.11.17.18.16.2.09.5-.16.81-.37.47-.84.79-1.3,1.14-.49.29-1.02.54-1.55.78-.79.35-1.61.64-2.43.93l-.02-.04Z"/><path class="cls-3" d="M143.28,433.27c-1.05-.58-2.82-.05-4.3.99-.54.39-1.03.84-1.54,1.3-1.79,1.61-3.39,3.55-4.64,5.69-.56.95-1,1.97-1.35,3-.4,1.34-.77,2.65-1.12,4.01-.14.42-.33.39-.65,0-.35-.39-.72-1.2-.66-2.11.07-.8.18-1.59.46-2.33.24-.75.54-1.47.87-2.17.67-1.4,1.48-2.73,2.45-3.94,1.15-1.45,2.3-3,3.76-4.27.8-.69,1.68-1.32,2.67-1.82.99-.49,2.12-.85,3.34-.8.37.04.75.08,1.11.21.18.05.36.11.53.2.16.09.36.14.55.3l.55.41c.16.16.32.32.41.52.21.39.22.86.13,1.29-.09.33-.23.64-.41.93-.16.25-.3.45-.46.65-.32.39-.65.75-.98,1.1-.66.67-1.32,1.33-1.98,2-.98,1.03-1.85,2.15-2.47,3.27-.13.24-.22.49-.32.72-.34.83-.41.87-1.03,1.19-.14.07-.26.17-.4.24-.22.12-.46.09-.68-.18-.22-.26-.36-.78-.28-1.36.11-.86.46-1.58.83-2.22.38-.64.81-1.21,1.26-1.75.9-1.07,1.89-2.01,2.81-2.94.34-.34.67-.68.97-1.01.15-.17.29-.33.42-.49.11-.13.27-.37.28-.38.01,0,.03-.02.03-.04,0-.01,0-.02-.01-.03,0,0,0,0-.02-.02-.03,0-.11-.05-.17-.08l.02-.05Z"/><path class="cls-3" d="M134.44,432.29c-1.17.95-2.3,2-3.32,3.15-.36.43-.67.9-1.02,1.33-1.27,1.51-2.42,3.15-3.23,4.96-.33.81-.6,1.66-.78,2.51-.16.54-.15,1.1-.25,1.65-.06.28-.05.55-.11.83-.07.28-.16.56-.27.84-.15.36-.27.33-.56.02-.14-.15-.36-.37-.55-.65-.22-.28-.39-.62-.37-.98.01-1.28.12-2.58.48-3.81.38-1.22.89-2.4,1.58-3.47.8-1.28,1.49-2.68,2.42-3.9,1.02-1.33,2.17-2.55,3.39-3.69.76-.69,1.54-1.36,2.39-1.98,1.36-1.01,2.99-1.5,4.61-1.72.64-.09,1.3-.11,2.01-.05.7.09,1.48.34,2.14.9.28.26.56.52.73.86.55,1.3.18,1.73-.45,1.97-.15.06-.31.12-.46.15-.53.09-.97-.3-1.29-.63-.23-.27-.44-.32-.6-.4-.16-.06-.42-.09-.71-.14-.63-.04-1.48.02-2.31.27-.62.18-1.2.41-1.7.72-.54.33-1.16.83-1.73,1.3l-.05-.05Z"/><path class="cls-3" d="M117.02,449.39c.19-4.53,1.59-8.76,3.65-12.61.37-.71.77-1.4,1.18-2.09l.66-1.01c.23-.34.51-.7.78-1.01,1.44-1.62,3.11-2.9,5.01-3.88.48-.24.97-.47,1.49-.65.66-.24,1.5-.45,2.22-.45.74-.02,1.4.15,1.96.5.56.34.97.94,1.15,1.58.04.5-.01.91-.23,1.37-.19.45-.56.9-.91,1.34-.18.22-.37.42-.56.63l-.41.44-.75.8c-1.62,1.72-3.1,3.52-4.25,5.45-.71,1.25-1.27,2.57-1.6,3.91-.16.67-.27,1.36-.28,2.05l-.04,1.05c0,.36.03.71.04,1.08-.06.96-.02.87-.67.22-.33-.33-.71-.85-1.09-1.58-.33-.73-.51-1.68-.43-2.68.11-1.59.56-3.11,1.22-4.49.65-1.38,1.46-2.64,2.32-3.82.89-1.16,1.86-2.22,2.82-3.24l.71-.75.18-.19s.03-.02.05-.04l.07-.05c.08-.06.22-.14.29-.29.03-.14-.04-.29-.17-.35-.09-.05-.21-.06-.33-.05-.13.01-.21.02-.68.2-.77.31-1.53.74-2.25,1.25-1.45,1.03-2.71,2.24-3.66,3.72-2.24,3.3-3.84,7.15-4.51,11.11-.21,1.22-.31,2.45-.28,3.67.01,1.22.18,2.44.53,3.58,1.19,3.62,2.8,7.22,4.37,10.79,1.23,2.78,2.4,5.61,3.06,8.62.17.66.29,1.31.4,1.98.31,2.5.13,3.32-.43,3.88-.13.13-.25.29-.38.37-.43.26-.88-.72-1.24-2.44-.57-2.56-1.15-5.11-2.12-7.59-.92-2.49-2.14-4.98-3.31-7.57-.87-1.92-1.71-3.9-2.47-5.9l-.29-.76-.27-.86c-.2-.58-.27-1.16-.41-1.74-.17-1.16-.27-2.33-.22-3.47h.07Z"/><path class="cls-3" d="M139.86,470.4c.24.55.5,1.09.79,1.63.11.19.27.35.36.57.33.74.67,1.49,1.05,2.21.17.32.37.62.57.92.23.4.39.86.44,1.35.01.15-.07.18-.27.15-.18-.04-.54-.08-.77-.22-.21-.13-.42-.25-.6-.39-.15-.16-.29-.33-.43-.5-.28-.34-.54-.7-.76-1.11-.26-.49-.72-.85-1.09-1.29-.37-.5-.71-1.04-1.05-1.58-.2-.34-.41-.68-.61-1.02-.31-.52-.57-1.06-.89-1.57-.26-.39-.64-.72-.96-1.1-.07-.08-.16-.16-.22-.25-.21-.34-.07-.54.62-.87.15-.08.31-.15.46-.22.53-.22,1.06-.26,1.29-.1.69.49,1.01,1.11,1.36,1.79.24.5.48,1.04.76,1.56l-.05.04Z"/><path class="cls-3" d="M122.5,490.61c-.09.83-.12,1.66-.22,2.5-.04.3,0,.6-.05.91-.15,1.08-.29,2.15-.34,3.22-.02.47,0,.95.02,1.41,0,.3.05.6.02.9-.08.31-.03.61-.08.91-.03.38-.47-.06-.77-.73-.43-1.19-.58-2.41-.64-3.64,0-.74-.23-1.49-.34-2.24-.13-.82-.14-1.65-.17-2.49-.02-.51-.04-1.02-.06-1.53-.05-.77-.03-1.55-.13-2.32-.08-.59-.33-1.16-.5-1.74-.04-.13-.11-.25-.1-.38-.01-.49.25-.66.88-.82.14-.04.28-.08.42-.1.23-.04.44-.02.66.05.21.07.44.19.56.36.46.49.56,1.03.71,1.57.12.54.19,1.1.23,1.65.08.83-.02,1.67-.03,2.51h-.07Z"/><path class="cls-3" d="M159.74,475.6l1.74,2.76c.21.33.49.62.69.96.72,1.21,1.3,2.51,1.96,3.74.29.55.62,1.08.95,1.59.42.66.9,1.32.82,2.26-.03.29-.05.27-.35.2-.15-.04-.41-.06-.65-.12-.12-.03-.27-.05-.39-.1-.11-.05-.2-.12-.29-.19-.33-.26-.55-.57-.77-.88-.24-.31-.47-.62-.68-.94-.45-.63-.87-1.29-1.24-1.99-.44-.84-1.18-1.52-1.72-2.33l-1.85-2.62-1.15-1.61c-.59-.81-1.17-1.64-1.83-2.38-.5-.59-1.19-.99-1.68-1.58-.11-.13-.24-.23-.34-.37-.35-.53-.28-.86.01-1.28.07-.1.13-.2.2-.29.24-.28.67-.31,1.19-.15,1.49.53,2.45,1.62,3.42,2.71.71.82,1.39,1.68,2.03,2.56l-.05.05Z"/><path class="cls-3" d="M148.1,440.98c-.23.85-.91,1.79-1.82,2.69l-.69.66-.53.44-.74.63c-.47.43-.9.82-1.26,1.31-.18.24-.39.47-.55.71l-.46.75c-.38.76-.57,1.57-.61,2.4-.15,1.46.27,3.07.69,4.79.4,1.72.86,3.73.28,5.69-.43,1.7-1.28,3.24-2.43,4.46-1.45,1.56-3.31,2.75-5.36,3.1-.64.11-.57,0-.18-.4.4-.41,1.02-1.28,1.81-1.98.69-.65,1.36-1.27,1.88-2,.51-.72.96-1.45,1.3-2.21.67-1.57.7-3.02.49-4.98-.15-1.15-.51-2.37-.76-3.7-.26-1.32-.36-2.8-.03-4.21.37-1.54,1.05-2.98,1.98-4.15.44-.62.97-1.16,1.48-1.67l.77-.73.38-.32c.29-.26.63-.54.82-.95.09-.19.14-.46-.03-.61-.15-.15-.38-.17-.58-.17-.32,0-.64.08-.95.2-.35.14-.54.2-1.11.56-1.01.62-1.94,1.44-2.76,2.35-1.28,1.42-2.25,3.07-3.17,4.74-.19.37-.39.74-.58,1.12-.78,1.36-1.23,1.7-1.96,1.69-.17,0-.35.02-.5,0-.51-.09-.59-.88-.2-2.05.63-1.7,1.52-3.35,2.59-4.96,1.08-1.6,2.39-3.13,4.06-4.42.32-.23.62-.47.98-.68l.51-.32.83-.43c1.22-.59,2.49-.93,3.51-.92,1.04.01,1.83.28,2.46.97.33.36.52.84.59,1.26.07.43-.01.87-.09,1.3l-.08.02Z"/><path class="cls-3" d="M136.74,477.27c2.32-.54,4.63-1.15,6.9-1.87.83-.26,1.61-.63,2.42-.91,1.23-.43,2.45-.89,3.6-1.41l.71-.32c.12-.05.24-.11.37-.17.24-.14.55-.3.68-.59.1-.21-.07-.38-.22-.47-.26-.16-.6-.23-.93-.28l-.72-.09c-.33-.04-.66-.07-.99-.1-1.72-.08-3.46-.17-5.21-.66-.55-.25-.47-.35,0-.76.47-.39,1.33-1.05,2.37-1.22l1.08-.18h1.09c.73,0,1.46.03,2.22.1l.29.03c.15.02.35.01.52.05.35.03.69.1,1.02.19.66.16,1.32.35,1.79.65.49.29.86.62,1.1,1.02.14.19.22.42.3.66.04.25.1.52.09.78-.09.58-.27,1.08-.65,1.56-.37.48-.91.91-1.47,1.3-.39.26-.79.5-1.21.72-.35.21-.55.29-.83.44-.52.25-1.05.49-1.58.74-1.05.48-2.1.94-3.17,1.33-2.35.84-4.73,1.53-7.12,2.16-1.47.39-2.95.74-4.43,1.08-2.24.52-4.52.93-6.77,1.36-1.76.33-3.46.79-5.32.98-.41.04-.82.1-1.26.09-.81-.01-1.4-.21-1.77-.51-.36-.32-.49-.73-.45-1.16.02-.2.04-.39.1-.53.12-.24.36-.36.62-.54.26-.18.55-.36.96-.39,1.24-.14,2.75-.39,4.24-.66,1.51-.27,3.07-.56,4.63-.88,2.32-.48,4.68-.98,7-1.59l.02.08Z"/><path class="cls-3" d="M140.66,422.08c-2.14,1.64-4.94,2.21-7.5,1.42-.91-.29-1.84-.69-2.54-1.36-1.22-1.13-2.09-2.6-2.34-4.24-.25-1.62.11-3.2.73-4.55.55-1.2,1.25-2.31,2.11-3.26,1.07-1.22,2.43-2.31,4.09-2.58.51-.09.48.07.24.5-.26.42-.59,1.24-1.12,1.83-.46.54-.98,1.01-1.38,1.58-.43.54-.77,1.14-1.14,1.69-.69,1.15-1.12,2.4-1.19,3.63-.01.74.16,1.5.62,2.13.17.35.5.61.74.91.29.25.57.5.9.68,1.38.87,3.35.86,4.95.05.98-.5,1.84-1.27,2.32-2.24.74-1.45.56-3.31-.27-4.94-.64-1.26-1.65-2.3-2.7-3.21-.23-.21-.49-.36-.72-.57-.84-.75-.94-1.13-.62-2,.07-.19.12-.4.21-.58.15-.3.4-.49.75-.55.36-.06.81,0,1.26.27,1.35.75,2.47,1.87,3.41,3.17.93,1.31,1.69,2.84,2.03,4.63.27,1.31.2,2.85-.31,4.23-.5,1.38-1.4,2.55-2.47,3.42l-.05-.05Z"/><path class="cls-3" d="M189.47,337.49c2.16,1.75,4.08,3.87,5.44,6.37,1.37,2.48,2.14,5.29,2.26,8.08,0,.51.05,1.01.04,1.53l-.13,1.6c-.1.53-.23,1.05-.35,1.57-.14.52-.37,1-.56,1.49-.79,1.69-1.91,3.17-3.19,4.42-1.31,1.22-2.75,2.22-4.26,3.07-1.53.81-3.12,1.47-4.75,1.98-1.64.48-3.32.81-5.02.98-3.03.22-6.04.07-8.96-.62-1.86-.46-3.71-1.11-5.39-2.15-.84-.51-1.58-1.18-2.27-1.89-.31-.38-.64-.75-.91-1.16-.25-.43-.49-.85-.65-1.32-.4-1.15-.26-.99.48-.31.81.66,2.26,1.61,3.95,2.48,2.96,1.72,6.57,2.24,10.1,2.42,1.8.07,3.51-.05,5.25-.38,1.73-.32,3.45-.83,5.09-1.54,1.96-.83,3.82-2.05,5.29-3.58,1.47-1.54,2.52-3.4,2.94-5.36.17-.53.15-1.09.21-1.64.04-.56-.04-1.17-.05-1.75-.04-.59-.17-1.16-.25-1.74-.12-.57-.3-1.13-.44-1.7-.73-2.23-2.02-4.27-3.66-6.01-2.02-2.15-4.55-3.87-7.3-5.12-2.07-.93-4.34-1.68-6.52-2.02-2.23-.28-4.54-.12-6.76.37-1.73.37-3.39.98-4.95,1.75-1.56.76-3.05,1.67-4.39,2.73-.62.43-1.12.99-1.7,1.45-2.01,1.91-2.6,2.5-3.75,2.45-.26,0-.54.03-.77-.02-.38-.08-.51-.45-.38-1.07.07-.31.19-.69.39-1.11.22-.4.52-.84.88-1.32,2.24-2.75,5.25-4.94,8.59-6.43,1.67-.76,3.43-1.36,5.26-1.76,1.82-.41,3.71-.66,5.64-.62.71-.03,1.44.07,2.16.12.72.09,1.48.22,2.16.38,1.35.33,2.68.73,3.97,1.23,2.59,1,5.06,2.34,7.3,4.06l-.05.07Z"/><path class="cls-3" d="M157.71,376.59c-1.24,2.06-2.66,4.01-4.24,5.81-.57.66-1.12,1.35-1.74,1.96-1.12,1.07-2.33,2.05-3.6,2.93-1.27.89-2.66,1.58-4.06,2.21-1.24.56-2.53,1.04-3.83,1.43-.43.08-.85.2-1.28.27l-1.29.18c-.87.09-1.75-.07-2.59-.21-.53-.1-.45-.21-.02-.48.28-.17.58-.35.87-.53.18-.1.36-.23.56-.35.1-.06.2-.11.3-.19l.32-.1c.77-.24,1.53-.5,2.25-.82.73-.29,1.48-.52,2.19-.86,1.44-.63,2.83-1.38,4.21-2.22,1.69-.97,3.11-2.46,4.46-3.94,1.5-1.62,2.86-3.4,4.04-5.3.74-1.16,1.4-2.38,1.99-3.63.89-1.89,1.68-3.87,2.17-5.89.38-1.57.46-3.17.51-4.75,0-.35,0-.69,0-1.03.02-1.28.33-1.67,1.14-1.95.19-.06.38-.15.56-.19.61-.13,1.16.43,1.38,1.49.41,3.13-.16,6.44-1.2,9.54-.78,2.31-1.84,4.51-3.03,6.63l-.07-.03Z"/><path class="cls-3" d="M126.44,401.36c-.24-.59-.41-1.21-.56-1.82-.08-.63-.24-1.25-.22-1.88-.05-1.23.09-2.57.59-3.78.34-.88.76-1.77,1.42-2.47,1.15-1.25,2.67-2.07,4.24-2.39.79-.18,1.57-.2,2.35-.17.8.03,1.58.25,2.3.55,1.29.53,2.39,1.37,3.27,2.33,1.06,1.28,1.9,2.73,2.13,4.33.08.49-.08.48-.47.2-.26-.18-.53-.37-.78-.55-.32-.22-.65-.48-.9-.8-.46-.56-.97-1.07-1.5-1.49-.51-.43-1.01-.83-1.55-1.11-1.08-.57-2.14-.77-3.46-.77-.76.01-1.52.27-2.16.68-.65.42-1.16,1-1.57,1.63-.48.69-.78,1.51-.89,2.38-.08.43-.02.91-.05,1.37.03.46.11.92.19,1.37.27,1.11.79,2.17,1.5,3.1,1.1,1.39,2.65,2.52,4.38,3.03,1.35.38,2.75.27,3.98-.09.27-.07.53-.17.79-.29.24-.1.44-.16.63-.18.18-.04.32-.07.47-.05.28.03.54.18.85.47.14.13.3.25.43.38.43.45.23,1.15-.67,1.83-1.37.88-3.1,1.26-4.79,1.2-1.7-.06-3.4-.55-4.88-1.39-2.24-1.21-4.04-3.22-5.1-5.58l.07-.03Z"/><path class="cls-3" d="M86.16,421.69c3.73-3.7,6.95-7.66,9.52-12.15,2.58-4.45,4.5-9.32,5.92-14.33,1.02-3.63,1.58-7.43,2.18-11.24,1.06-6.73,1.89-13.64,3.91-20.37,1-3.36,2.35-6.66,4.14-9.74,1.82-3.05,4.09-5.87,6.81-8.18,2.41-2.06,5.03-3.79,7.94-5.11,2.9-1.31,6.04-2.07,9.17-2.3,4.04-.35,8.12.27,11.92,1.58,1.88.7,3.76,1.47,5.44,2.57.86.51,1.66,1.13,2.46,1.73.42.28.74.68,1.11,1.01.35.36.74.66,1.04,1.07,1.55,1.95,1.34,1.63-.48.62-.92-.49-2.31-1.02-3.89-1.66-1.62-.59-3.44-1.27-5.43-1.96-3.52-1.23-7.22-1.75-10.87-1.7-3.66.06-7.24,1.02-10.45,2.65-3.28,1.76-6.29,3.99-8.75,6.78-1.23,1.39-2.34,2.9-3.32,4.51-.97,1.62-1.81,3.33-2.55,5.1-1.77,4.25-2.8,8.94-3.58,13.72-.78,4.79-1.31,9.69-2.18,14.56-.47,2.67-1.04,5.36-1.82,8-.77,2.62-1.66,5.22-2.73,7.74-2.12,5.06-4.94,9.85-8.4,14.11-4.28,5.27-9.42,9.5-13.54,14.51-3.12,3.76-5.68,8-6.34,12.77-.73,4.75-.01,9.71,1.76,14.17,2.69,7.03,8.56,12.17,15.05,15.54,1.43.76,2.92,1.33,4.44,1.91,2.84,1.03,4.78,1.51,6.12,1.94,1.35.41,2.11.81,2.72,1.32.28.23.66.47.82.69.27.36-.24.6-1.44.72-1.19.11-3.06,0-5.4-.52-6.92-1.54-13.7-5.13-18.97-10.54-1.33-1.31-2.56-2.89-3.62-4.48-1.07-1.62-1.93-3.35-2.69-5.13-1.44-3.58-2.31-7.42-2.4-11.34-.07-2.9.27-5.86,1.19-8.7.94-2.86,2.39-5.41,4.03-7.74,3.31-4.67,7.38-8.39,11.08-12.2l.07.05Z"/><path class="cls-3" d="M168.67,378.08c-.14,1.52.12,3.07.61,4.73.16.6.44,1.15.65,1.73.75,2.02,1.66,4.05,3.13,5.66.62.75,1.43,1.29,2.21,1.83,1.04.66,2.18,1.13,3.37,1.56.37.15.29.36-.1.56-.39.19-1.13.42-1.93.25-1.4-.32-2.84-.84-3.97-1.78-1.16-.89-2.14-1.99-2.9-3.21-.9-1.45-1.87-2.92-2.49-4.53-.35-.88-.63-1.77-.88-2.68-.13-.44-.21-.95-.32-1.41-.07-.48-.13-.97-.17-1.45-.09-1.2.04-2.42.3-3.6.44-1.78,1.36-3.51,2.78-4.75,1.08-.97,2.37-1.76,3.8-2.12.31-.09.62-.15.94-.19.6-.09.99,0,1.25.15.26.15.4.39.49.76.04.17.09.34.11.51.04.57-.41,1.03-1.08,1.19-.98.32-1.88.58-2.64,1.04-.75.45-1.37,1.01-1.87,1.74-.76,1.05-1.16,2.51-1.22,4.01h-.07Z"/><path class="cls-3" d="M154.11,388.23c.87,1.21,1.97,2.2,3.17,3.07s2.65,1.69,4.14,2.05c1.59.39,3.21.23,4.52-.82,1.38-1.11,1.69-2.87,1.19-4.5s-1.53-2.98-2.37-4.43-2.97-.13-2.16,1.26c.62,1.06,1.33,2.06,1.87,3.17.01.02.12.26.06.13s.04.11.05.13c.05.13.1.26.14.4.05.15.09.3.12.45.02.07.03.15.04.22-.02-.18,0-.05,0,.06,0,.13,0,.25,0,.38.02-.27-.04.1-.06.19-.01.05-.09.22,0,0-.03.07-.07.13-.1.2-.03.05-.06.1-.09.14-.06.09.09-.07-.06.07-.25.23-.31.28-.63.47-.18.11.17-.04-.11.05-.14.04-.29.08-.43.11-.07.02-.23.02.03,0-.07,0-.14.01-.21.01-.12,0-.24,0-.37,0s-.25-.02-.37-.03c.27.03-.18-.04-.27-.06-.28-.06-.56-.15-.84-.25-.04-.01-.47-.18-.26-.1-.17-.07-.34-.15-.51-.23-.59-.29-1.15-.63-1.69-1-.59-.41-.96-.7-1.55-1.26-.23-.21-.44-.43-.65-.66-.1-.11-.2-.22-.3-.34-.04-.05-.08-.1-.12-.15.12.15.06.08-.02-.03-.4-.55-1.09-.81-1.71-.45-.54.32-.85,1.16-.45,1.71h0Z"/><path class="cls-3" d="M167.93,404.45c.62,1.53,1.81,2.71,3.39,3.24,1.78.59,3.62-.02,4.95-1.26.48-.45.49-1.32,0-1.77-.51-.47-1.26-.48-1.77,0-.08.07-.16.14-.24.22-.18.15.09-.05-.03.02-.14.08-.27.18-.41.26-.07.04-.14.07-.21.11-.27.13.25-.07-.03.01-.14.04-.27.09-.42.12l-.08.02c-.11.02-.11.02,0,0,.11-.01.11-.01,0,0h-.08c-.15.02-.3.01-.45,0-.23,0-.01-.04.05.01-.04-.03-.15-.03-.2-.04-.14-.03-.28-.07-.42-.11-.06-.02-.12-.05-.19-.07-.15-.05.24.12.04.02-.12-.06-.24-.12-.35-.19-.07-.04-.13-.08-.2-.13s-.15-.18-.06-.04,0,0-.06-.05-.1-.09-.15-.13c-.1-.1-.2-.2-.3-.31-.04-.04-.14-.22-.05-.05s-.01-.02-.04-.06c-.07-.1-.14-.21-.2-.32-.06-.1-.24-.53-.1-.17-.24-.6-.84-1.1-1.54-.87-.58.19-1.13.89-.87,1.54h0Z"/><path class="cls-3" d="M190.78,447.41c-.43,1.13-.13,2.51.59,3.46.41.54.86.99,1.45,1.34s1.22.53,1.9.6c.71.07,1.47-.13,2.08-.49.33-.19.59-.53.69-.9s.05-.84-.15-1.16c-.44-.68-1.33-.96-2.05-.54-.08.05-.16.09-.24.12l.36-.15c-.18.07-.36.12-.54.15l.4-.05c-.2.02-.4.02-.6,0l.4.05c-.23-.03-.46-.1-.67-.18l.36.15c-.26-.11-.51-.26-.73-.43l.3.23c-.21-.17-.4-.36-.57-.57l.23.3c-.15-.2-.28-.41-.38-.65l.15.36c-.08-.2-.14-.41-.17-.62l.05.4c-.02-.19-.02-.37,0-.56l-.05.4c.02-.16.06-.32.12-.47.13-.34.03-.85-.15-1.16s-.54-.61-.9-.69c-.38-.09-.81-.07-1.16.15s-.54.51-.69.9h0Z"/><path class="cls-3" d="M155.57,449.59c.14.03.28.07.42.12l-.36-.15c.17.07.32.16.47.27l-.3-.23c.16.13.3.27.42.43l-.23-.3c.12.16.22.33.3.52l-.15-.36c.07.17.12.34.15.52l-.05-.4c.02.18.03.36,0,.54l.05-.4c-.02.16-.07.32-.13.47l.15-.36c-.07.16-.16.31-.27.45l.23-.3c-.12.15-.26.29-.41.41l.3-.23c-.16.12-.33.21-.51.29l.36-.15c-.18.07-.37.13-.56.16l.4-.05c-.19.03-.38.03-.58,0l.4.05c-.12-.02-.24-.05-.36-.09-.74-.25-1.67.29-1.85,1.05-.19.83.25,1.58,1.05,1.85,1.44.49,3.09-.14,3.99-1.31.99-1.29.92-3.05-.06-4.32-.51-.66-1.24-1.21-2.09-1.36-.41-.07-.79-.06-1.16.15-.31.18-.61.54-.69.9-.09.38-.07.81.15,1.16.2.31.52.62.9.69h0Z"/><path class="cls-3" d="M179.16,468.43c.27,1.18,1.28,2.05,2.43,2.35,1.04.27,2.29.16,3.19-.47.63-.43,1.08-1.02,1.3-1.76.2-.69-.25-1.53-.96-1.69s-1.47.22-1.69.96c-.02.07-.04.13-.07.2l.14-.33c-.06.14-.13.26-.23.38l.22-.28c-.09.11-.2.21-.31.3l.28-.22c-.14.11-.29.19-.45.26l.33-.14c-.22.09-.44.15-.68.18l.37-.05c-.25.03-.5.03-.76,0l.37.05c-.22-.03-.43-.09-.64-.17l.33.14c-.17-.07-.34-.17-.49-.28l.28.22c-.13-.1-.24-.21-.34-.33l.22.28c-.09-.12-.16-.25-.22-.38l.14.33c-.04-.09-.06-.18-.09-.28-.16-.7-1.01-1.18-1.69-.96-.73.24-1.13.94-.96,1.69h0Z"/><path class="cls-3" d="M150.67,490.51c.19-.07.38-.12.58-.15l-.4.05c.23-.03.46-.02.7,0l-.4-.05c.27.04.52.11.77.21l-.36-.15c.27.11.51.26.74.43l-.3-.23c.23.18.43.38.61.6l-.23-.3c.14.19.26.39.35.6l-.15-.36c.09.22.15.44.19.67l-.05-.4c0,.05.01.1.02.15.03.4.15.77.44,1.06.26.26.69.46,1.06.44s.79-.14,1.06-.44.47-.67.44-1.06c-.06-.72-.24-1.41-.64-2.02s-.87-1.07-1.47-1.45c-1.07-.69-2.54-.95-3.75-.5-.37.14-.69.33-.9.69-.19.32-.27.8-.15,1.16s.34.71.69.9.78.29,1.16.15h0Z"/><path class="cls-3" d="M199.34,492.4c1.15.36,2.47.09,3.43-.62s1.74-1.71,1.94-2.91c.06-.35.1-.7.06-1.05-.06-.51-.17-.88-.37-1.34-.13-.29-.53-.55-.82-.63-.33-.09-.77-.05-1.06.14s-.55.47-.63.82l-.05.37c0,.25.06.48.19.69l.02.05-.14-.33c.07.18.12.36.15.56l-.05-.37c.03.22.03.44,0,.66l.05-.37c-.03.25-.1.5-.2.73l.14-.33c-.11.27-.26.52-.44.75l.22-.28c-.18.23-.39.44-.62.62l.28-.22c-.22.17-.45.31-.7.42l.33-.14c-.22.09-.45.16-.68.19l.37-.05c-.22.03-.44.03-.66,0l.37.05c-.13-.02-.25-.05-.38-.09-.69-.21-1.53.25-1.69.96-.17.75.23,1.46.96,1.69h0Z"/></svg>